<svg width="24" height="24" viewBox="0 0 24 24" fill="none" xmlns="http://www.w3.org/2000/svg">
<path fill-rule="evenodd" clip-rule="evenodd" d="M9.26578 2.46094C7.41565 2.46094 5.91582 3.96076 5.91582 5.81089C5.91582 7.66102 7.41565 9.16084 9.26578 9.16084C11.1159 9.16084 12.6157 7.66102 12.6157 5.81089C12.6157 3.96076 11.1159 2.46094 9.26578 2.46094ZM4.41582 5.81089C4.41582 3.13233 6.58722 0.960938 9.26578 0.960938C11.9443 0.960938 14.1157 3.13233 14.1157 5.81089C14.1157 8.48944 11.9443 10.6608 9.26578 10.6608C6.58722 10.6608 4.41582 8.48944 4.41582 5.81089ZM11.9869 16.873C11.9869 14.2957 14.0762 12.2063 16.6536 12.2063C19.2309 12.2063 21.3203 14.2957 21.3203 16.873C21.3203 19.4504 19.2309 21.5397 16.6536 21.5397C14.0762 21.5397 11.9869 19.4504 11.9869 16.873ZM11.5678 13.3845C10.8859 14.3766 10.4869 15.5782 10.4869 16.873C10.4869 17.657 10.6332 18.4067 10.8999 19.0965H2.68375C2.80089 15.7478 5.55254 13.0689 8.92987 13.0689H9.60171C10.2886 13.0689 10.9496 13.1797 11.5678 13.3845ZM12.643 12.1885C11.7093 11.7897 10.6813 11.5689 9.60171 11.5689H8.92987C4.64966 11.5689 1.17987 15.0387 1.17987 19.3189V19.8465V20.5965H1.92987H11.7375C12.8636 22.081 14.6466 23.0397 16.6536 23.0397C20.0594 23.0397 22.8203 20.2788 22.8203 16.873C22.8203 13.4672 20.0594 10.7063 16.6536 10.7063C15.1223 10.7063 13.7213 11.2645 12.643 12.1885ZM16.6536 13.6483C17.0678 13.6483 17.4036 13.9841 17.4036 14.3983V16.1604H19.1654C19.5797 16.1604 19.9154 16.4962 19.9154 16.9104C19.9154 17.3246 19.5797 17.6604 19.1654 17.6604H17.4036V19.422C17.4036 19.8362 17.0678 20.172 16.6536 20.172C16.2394 20.172 15.9036 19.8362 15.9036 19.422V17.6604H14.1418C13.7276 17.6604 13.3918 17.3246 13.3918 16.9104C13.3918 16.4962 13.7276 16.1604 14.1418 16.1604H15.9036V14.3983C15.9036 13.9841 16.2394 13.6483 16.6536 13.6483Z" fill="black"/>
</svg>
