<svg width="20" height="20" viewBox="0 0 20 20" fill="none" xmlns="http://www.w3.org/2000/svg">
<path d="M13.7199 16.2205C12.9166 16.2205 12.263 15.567 12.263 14.7637V14.3879H11.8873C11.084 14.3879 10.4304 13.7344 10.4304 12.9311C10.4304 12.1278 11.0839 11.4742 11.8873 11.4742H12.263V11.0985C12.263 10.2952 12.9165 9.6416 13.7199 9.6416C14.5232 9.6416 15.1767 10.2952 15.1767 11.0985V11.4742H15.5525C16.3558 11.4742 17.0093 12.1278 17.0093 12.9311C17.0093 13.7344 16.3558 14.3879 15.5525 14.3879H15.1767V14.7637C15.1767 15.567 14.5232 16.2205 13.7199 16.2205ZM11.8873 12.4174C11.604 12.4174 11.3736 12.6478 11.3736 12.9311C11.3736 13.2144 11.604 13.4448 11.8873 13.4448H12.7346C12.995 13.4448 13.2062 13.6559 13.2062 13.9163V14.7637C13.2062 15.0469 13.4366 15.2774 13.7199 15.2774C14.0032 15.2774 14.2336 15.0469 14.2336 14.7637V13.9163C14.2336 13.6559 14.4448 13.4448 14.7052 13.4448H15.5525C15.8358 13.4448 16.0662 13.2143 16.0662 12.9311C16.0662 12.6478 15.8358 12.4174 15.5525 12.4174H14.7052C14.4448 12.4174 14.2336 12.2062 14.2336 11.9458V11.0985C14.2336 10.8152 14.0031 10.5847 13.7199 10.5847C13.4366 10.5847 13.2062 10.8152 13.2062 11.0985V11.9458C13.2062 12.2062 12.995 12.4174 12.7346 12.4174H11.8873Z" fill="#333333"/>
<ellipse cx="6.91927" cy="5.32869" rx="3.62166" ry="3.62166" stroke="#333333" stroke-width="1.2"/>
<circle cx="13.6795" cy="13.0547" r="5.07032" stroke="#333333" stroke-width="1.2"/>
<path fill-rule="evenodd" clip-rule="evenodd" d="M10.6038 9.02374C10.0132 8.59975 9.28905 8.3501 8.50656 8.3501H5.33169C3.34346 8.3501 1.73169 9.96187 1.73169 11.9501V16.1934C1.73169 16.5248 2.00032 16.7934 2.33169 16.7934H10.2543C9.87516 16.4458 9.54903 16.0413 9.28948 15.5934H2.93169V11.9501C2.93169 10.6246 4.00621 9.5501 5.33169 9.5501H8.50656C8.95121 9.5501 9.36761 9.67102 9.72469 9.88177C9.98193 9.56157 10.2773 9.27327 10.6038 9.02374Z" fill="#333333"/>
</svg>
