<svg width="12" height="18" viewBox="0 0 12 18" fill="none" xmlns="http://www.w3.org/2000/svg">
<path d="M11 7.57115V8.99972C11 10.3258 10.4732 11.5976 9.53553 12.5353C8.59785 13.4729 7.32608 13.9997 6 13.9997M6 13.9997C4.67392 13.9997 3.40215 13.4729 2.46447 12.5353C1.52678 11.5976 1 10.3258 1 8.99972V7.57115M6 13.9997V16.8569M3.14286 16.8569H8.85714M6 1.14258C5.43168 1.14258 4.88663 1.36834 4.48477 1.77021C4.08291 2.17207 3.85714 2.71711 3.85714 3.28544V8.99972C3.85714 9.56804 4.08291 10.1131 4.48477 10.515C4.88663 10.9168 5.43168 11.1426 6 11.1426C6.56832 11.1426 7.11337 10.9168 7.51523 10.515C7.91709 10.1131 8.14286 9.56804 8.14286 8.99972V3.28544C8.14286 2.71711 7.91709 2.17207 7.51523 1.77021C7.11337 1.36834 6.56832 1.14258 6 1.14258Z" stroke="black" stroke-width="1.5" stroke-linecap="round" stroke-linejoin="round"/>
</svg>
