<svg width="20" height="20" viewBox="0 0 20 20" fill="none" xmlns="http://www.w3.org/2000/svg">
<path d="M6.88889 10H3.77778C3.34822 10 3 10.3482 3 10.7778V15.4444C3 15.874 3.34822 16.2222 3.77778 16.2222H6.88889C7.31844 16.2222 7.66667 15.874 7.66667 15.4444V10.7778C7.66667 10.3482 7.31844 10 6.88889 10Z" fill="white" stroke="#333333" stroke-width="1.2" stroke-linecap="round" stroke-linejoin="round"/>
<path d="M11.5556 6.88867H8.44446C8.01491 6.88867 7.66669 7.23689 7.66669 7.66645V15.4442C7.66669 15.8738 8.01491 16.222 8.44446 16.222H11.5556C11.9851 16.222 12.3334 15.8738 12.3334 15.4442V7.66645C12.3334 7.23689 11.9851 6.88867 11.5556 6.88867Z" fill="white" stroke="#333333" stroke-width="1.2" stroke-linecap="round" stroke-linejoin="round"/>
<path d="M16.2223 3.77783H13.1112C12.6816 3.77783 12.3334 4.12605 12.3334 4.55561V15.4445C12.3334 15.8741 12.6816 16.2223 13.1112 16.2223H16.2223C16.6518 16.2223 17 15.8741 17 15.4445V4.55561C17 4.12605 16.6518 3.77783 16.2223 3.77783Z" fill="white" stroke="#333333" stroke-width="1.2" stroke-linecap="round" stroke-linejoin="round"/>
<path d="M3.77783 16.2222H14.6667" stroke="#2C3E50" stroke-width="1.25" stroke-linecap="round" stroke-linejoin="round"/>
</svg>
