<svg width="22" height="22" viewBox="0 0 22 22" fill="none" xmlns="http://www.w3.org/2000/svg">
<path d="M6.19557 11.0303H1.75113C1.13748 11.0303 0.640015 11.5899 0.640015 12.2803V19.7803C0.640015 20.4706 1.13748 21.0303 1.75113 21.0303H6.19557C6.80922 21.0303 7.30668 20.4706 7.30668 19.7803V12.2803C7.30668 11.5899 6.80922 11.0303 6.19557 11.0303Z" stroke="white" stroke-width="1.2" stroke-linecap="round" stroke-linejoin="round"/>
<path d="M12.8622 1.03076H8.41775C7.8041 1.03076 7.30664 1.77695 7.30664 2.69743V19.3641C7.30664 20.2846 7.8041 21.0308 8.41775 21.0308H12.8622C13.4758 21.0308 13.9733 20.2846 13.9733 19.3641V2.69743C13.9733 1.77695 13.4758 1.03076 12.8622 1.03076Z" stroke="white" stroke-width="1.2" stroke-linecap="round" stroke-linejoin="round"/>
<path d="M19.5289 6.78076H15.0845C14.4708 6.78076 13.9734 7.17951 13.9734 7.67139V20.1401C13.9734 20.632 14.4708 21.0308 15.0845 21.0308H19.5289C20.1426 21.0308 20.6401 20.632 20.6401 20.1401V7.67139C20.6401 7.17951 20.1426 6.78076 19.5289 6.78076Z" stroke="white" stroke-width="1.2" stroke-linecap="round" stroke-linejoin="round"/>
<path d="M1.7511 21.0308H17.3067" stroke="white" stroke-width="1.25" stroke-linecap="round" stroke-linejoin="round"/>
</svg>
