<svg width="25" height="25" viewBox="0 0 25 25" fill="none" xmlns="http://www.w3.org/2000/svg">
<g clip-path="url(#clip0)">
<path d="M15.895 5.07584C16.0917 5.3318 16.2151 5.62578 16.2672 5.93025C16.3317 5.87142 16.4005 5.81948 16.4712 5.7709L16.9298 5.29845C17.2899 4.92751 17.3453 4.33067 17.0293 3.91934C16.83 3.65994 16.5392 3.53027 16.2485 3.53027C15.9939 3.53027 15.7393 3.6298 15.546 3.82885L14.9689 4.42354C15.3304 4.53706 15.6532 4.76113 15.895 5.07584Z" fill="#FFD4C4"/>
<path d="M8.54855 8.93904L8.56585 9.56012L13.8315 4.19103C14.1915 3.82009 14.2469 3.22333 13.9309 2.812C13.7316 2.55259 13.4409 2.42293 13.1502 2.42285C12.8955 2.42285 12.6409 2.52245 12.4476 2.72142L7.85388 7.45459C8.27383 7.80595 8.54409 8.34044 8.54855 8.93904Z" fill="#FFD4C4"/>
<path d="M3.63684 15.9508L3.89916 15.6366L4.8009 8.88127C4.83491 7.93866 5.52794 7.16695 6.41803 7.04104L6.39241 6.1203C6.39241 5.56294 5.94974 5.10693 5.40877 5.10693C4.8678 5.10693 4.42521 5.56294 4.42521 6.1203L3.48077 13.1951C3.48069 13.1958 3.48032 13.1966 3.47988 13.1971L2.56804 14.2892C2.42563 14.4597 2.43506 14.7146 2.58964 14.8737L3.63684 15.9508Z" fill="#FFD4C4"/>
<path d="M22.6468 3.89228C22.8476 3.74594 22.8952 3.45945 22.7531 3.25252C22.611 3.0456 22.3331 2.99649 22.1322 3.14298L21.0196 3.95401C20.8188 4.10035 20.7712 4.38684 20.9133 4.59376C21.0001 4.72014 21.1377 4.78769 21.2773 4.78769C21.3662 4.78769 21.456 4.7603 21.5342 4.70323L22.6468 3.89228Z" fill="#FFC10E"/>
<path d="M19.6993 3.62841C19.7509 3.64845 19.8039 3.65794 19.856 3.65794C20.0362 3.65794 20.2059 3.54442 20.273 3.36029L20.7526 2.0459C20.8392 1.80868 20.7227 1.54399 20.4924 1.45479C20.2622 1.36552 20.0052 1.4857 19.9186 1.72292L19.439 3.03731C19.3525 3.27453 19.469 3.53922 19.6993 3.62841Z" fill="#FFC10E"/>
<path d="M23.2008 5.63477C23.1977 5.63477 23.1947 5.63477 23.1916 5.63477L21.829 5.64655C21.5831 5.65167 21.3877 5.84582 21.3927 6.09926C21.3976 6.34956 21.596 6.55274 21.8379 6.55274C21.841 6.55274 21.844 6.55274 21.8471 6.55274L23.2097 6.52888C23.4556 6.52375 23.651 6.31988 23.646 6.06644C23.6411 5.81614 23.4427 5.63477 23.2008 5.63477Z" fill="#FFC10E"/>
<path d="M19.9868 14.8851C20.4006 14.4588 20.3713 13.7421 19.8989 13.3569C19.7221 13.2127 19.5099 13.1435 19.297 13.1435C19.0294 13.1435 18.7609 13.2528 18.5604 13.4594L16.3349 15.7523C16.2453 15.8447 16.1279 15.8908 16.0104 15.8908C15.893 15.8908 15.7756 15.8447 15.686 15.7523L15.6802 15.7463C15.4862 15.5466 15.4862 15.2225 15.6802 15.0228L19.27 11.3241C19.63 10.9532 19.6855 10.3563 19.3695 9.94507C19.1702 9.68559 18.8794 9.55592 18.5888 9.55592C18.3341 9.55592 18.0795 9.65545 17.8862 9.8545L14.2621 13.5884C14.1687 13.6846 14.0463 13.7327 13.9239 13.7327C13.8015 13.7327 13.679 13.6846 13.5856 13.5884C13.3961 13.393 13.3961 13.0764 13.5856 12.8811L18.195 8.13199C18.5551 7.76105 18.6105 7.16421 18.2945 6.75296C18.0952 6.49355 17.8045 6.36389 17.5138 6.36381C17.2591 6.36381 17.0045 6.46334 16.8113 6.66238L12.1801 11.4338C12.0854 11.5313 11.9614 11.5801 11.8373 11.5801C11.7132 11.5801 11.5892 11.5313 11.4945 11.4338C11.3075 11.2411 11.3075 10.9288 11.4945 10.7361L15.0969 7.02452C15.4569 6.65359 15.5124 6.05675 15.1964 5.64542C14.9971 5.38601 14.7063 5.25635 14.4156 5.25635C14.1609 5.25635 13.9064 5.35587 13.7131 5.55492L8.48374 10.9428C8.39085 11.0385 8.27621 11.0814 8.1638 11.0814C7.93333 11.0814 7.71178 10.9008 7.70413 10.6235L7.65765 8.95396C7.65765 8.3966 7.21506 7.94051 6.67408 7.94051C6.13311 7.94051 5.69045 8.3966 5.69045 8.95396L4.74608 16.0287C4.74593 16.0295 4.74564 16.0302 4.74512 16.0307L3.83335 17.1228C3.69087 17.2934 3.7003 17.5483 3.85496 17.7073L9.0279 23.0285C9.10868 23.1116 9.2153 23.154 9.32252 23.154C9.41161 23.154 9.50108 23.1247 9.57637 23.0651L10.7387 22.1454C10.7885 22.1061 10.8461 22.0795 10.9073 22.0657C12.9238 21.6129 15.2194 19.7967 17.4154 17.5341L19.9868 14.8851Z" fill="#FFD4C4"/>
<path d="M20.4519 12.6373C20.2238 12.4511 19.9536 12.3245 19.6681 12.265C19.6869 12.2298 19.7045 12.194 19.7212 12.1576L19.9 11.9734C20.5885 11.2639 20.6609 10.1471 20.0681 9.37547C19.7882 9.01126 19.3998 8.76922 18.9683 8.67887C18.9991 8.62043 19.0264 8.56069 19.0512 8.50002C19.5202 7.80014 19.5125 6.85952 18.9932 6.18343C18.7133 5.81899 18.3246 5.57619 17.893 5.486C18.2494 4.81082 18.2038 3.96935 17.7278 3.34979C17.3678 2.88124 16.8287 2.61242 16.2485 2.61242C15.7839 2.61242 15.3457 2.78347 15.0017 3.09666C14.9497 2.79227 14.8263 2.49829 14.6296 2.24225C14.2696 1.7737 13.7305 1.50496 13.1503 1.50488C12.6461 1.50488 12.1729 1.70646 11.8178 2.07235L7.30049 6.72649L7.28327 6.10533C7.27532 5.04736 6.43743 4.18912 5.40873 4.18912C4.39865 4.18912 3.57264 5.01645 3.53552 6.04788L2.6337 12.8031L1.89248 13.6908C1.44825 14.223 1.47803 15.0281 1.96042 15.5238L3.06204 16.6569C2.72243 17.1833 2.7819 17.9013 3.22583 18.3575L8.39848 23.6785C8.64565 23.9325 8.97375 24.0723 9.32257 24.0723C9.60894 24.0723 9.8919 23.9733 10.1192 23.7934L11.199 22.9391C12.2378 22.6863 13.3831 22.112 14.6051 21.2309C15.6721 20.4615 16.8297 19.4363 18.0455 18.1835L20.6168 15.5343C20.996 15.1437 21.1956 14.602 21.1644 14.0482C21.1332 13.4953 20.8736 12.9811 20.4519 12.6373ZM10.7388 22.1457L9.57642 23.0653C9.50114 23.1249 9.41167 23.1542 9.32257 23.1542C9.21543 23.1542 9.10873 23.1118 9.02795 23.0287L3.85501 17.7075C3.70035 17.5486 3.69092 17.2937 3.8334 17.123L4.74517 16.031C4.74569 16.0303 4.74599 16.0297 4.74614 16.029L5.6905 8.95419C5.6905 8.39683 6.13317 7.94074 6.67414 7.94074C7.21511 7.94074 7.6577 8.39683 7.6577 8.95419L7.70418 10.6237C7.7119 10.9011 7.93339 11.0817 8.16385 11.0817C8.27626 11.0817 8.3909 11.0387 8.48379 10.943L13.7132 5.55515C13.9064 5.35603 14.161 5.25658 14.4157 5.25658C14.7064 5.25658 14.9971 5.38624 15.1964 5.64565C15.5124 6.05698 15.457 6.65389 15.0969 7.02476L11.4946 10.7363C11.3075 10.9291 11.3075 11.2414 11.4946 11.434C11.5892 11.5316 11.7133 11.5804 11.8374 11.5804C11.9614 11.5804 12.0856 11.5316 12.1802 11.434L16.8113 6.66261C17.0045 6.46349 17.2591 6.36404 17.5138 6.36404C17.8045 6.36412 18.0953 6.49378 18.2946 6.75319C18.6106 7.16444 18.5551 7.76136 18.1951 8.13222L13.5857 12.8813C13.3961 13.0767 13.3961 13.3932 13.5857 13.5886C13.6791 13.6848 13.8014 13.733 13.924 13.733C14.0463 13.733 14.1687 13.6848 14.2622 13.5886L17.8863 9.85473C18.0795 9.6556 18.3341 9.55616 18.5888 9.55616C18.8795 9.55616 19.1703 9.68582 19.3695 9.9453C19.6855 10.3566 19.6301 10.9535 19.27 11.3243L15.6802 15.023C15.4863 15.2228 15.4863 15.5468 15.6802 15.7465L15.686 15.7526C15.7756 15.8449 15.8931 15.891 16.0105 15.891C16.1279 15.891 16.2454 15.8449 16.3349 15.7526L18.5605 13.4596C18.761 13.253 19.0295 13.1438 19.2971 13.1438C19.5099 13.1438 19.7222 13.2129 19.899 13.3571C20.3713 13.7423 20.4006 14.459 19.9868 14.8853L17.4156 17.5345C15.2196 19.7971 12.9241 21.6132 10.9075 22.066C10.8462 22.0797 10.7886 22.1064 10.7388 22.1457ZM2.56799 14.2894L3.47983 13.1972C3.48028 13.1967 3.48065 13.1959 3.48072 13.1952L4.42516 6.12047C4.42516 5.56311 4.86775 5.1071 5.40873 5.1071C5.9497 5.1071 6.39237 5.56311 6.39237 6.12047L6.41798 7.04113C5.52789 7.16704 4.83486 7.93868 4.80086 8.88144L3.89911 15.6368L3.63679 15.951L2.58967 14.8739C2.43501 14.7149 2.42558 14.46 2.56799 14.2894ZM13.1503 2.42278C13.441 2.42286 13.7317 2.55252 13.931 2.81193C14.247 3.22326 14.1916 3.8201 13.8316 4.19096L8.56598 9.56006L8.54868 8.93897C8.54415 8.34037 8.27396 7.80588 7.85401 7.45452L12.4478 2.72143C12.6409 2.52238 12.8956 2.42278 13.1503 2.42278ZM16.2484 3.53032C16.5391 3.53032 16.8299 3.65999 17.0292 3.91939C17.3452 4.33072 17.2898 4.92764 16.9297 5.2985L16.4711 5.77095C16.4004 5.81953 16.3316 5.87147 16.2671 5.9303C16.2151 5.62584 16.0916 5.33185 15.8949 5.07589C15.6531 4.76118 15.3304 4.53711 14.9687 4.42359L15.5458 3.8289C15.7392 3.62985 15.9938 3.53032 16.2484 3.53032Z" fill="black"/>
</g>
<defs>
<clipPath id="clip0">
<rect width="22.0681" height="22.7368" fill="white" transform="translate(1.578 1.38037)"/>
</clipPath>
</defs>
</svg>
