<svg width="25" height="24" viewBox="0 0 25 24" fill="none" xmlns="http://www.w3.org/2000/svg">
<path d="M10.5709 21.0832C15.8991 21.0832 20.2185 16.7639 20.2185 11.4357C20.2185 6.10745 15.8991 1.78809 10.5709 1.78809C5.24271 1.78809 0.92334 6.10745 0.92334 11.4357C0.92334 16.7639 5.24271 21.0832 10.5709 21.0832Z" fill="#FFC10E"/>
<path d="M7.63846 11.7564C8.47526 11.7564 9.15363 11.078 9.15363 10.2412C9.15363 9.40444 8.47526 8.72607 7.63846 8.72607C6.80165 8.72607 6.12329 9.40444 6.12329 10.2412C6.12329 11.078 6.80165 11.7564 7.63846 11.7564Z" fill="black"/>
<path d="M13.6924 11.7559C14.5292 11.7559 15.2076 10.726 15.2076 9.45559C15.2076 8.18516 14.5292 7.15527 13.6924 7.15527C12.8556 7.15527 12.1772 8.18516 12.1772 9.45559C12.1772 10.726 12.8556 11.7559 13.6924 11.7559Z" fill="black"/>
<path d="M8.8765 5.97004C8.36938 6.56327 7.86238 7.15629 7.35526 7.74951C7.53489 7.74951 7.71419 7.74951 7.89377 7.74951C6.87021 6.92809 5.84665 6.10672 4.8231 5.2853C4.44406 4.98109 3.90128 5.51638 4.28459 5.8238C5.30815 6.64522 6.33171 7.4666 7.35526 8.28802C7.50667 8.40959 7.74847 8.45804 7.89377 8.28802C8.40089 7.6948 8.90788 7.10177 9.415 6.50855C9.73232 6.13745 9.19625 5.59601 8.8765 5.97004Z" fill="black"/>
<path d="M12.3405 6.86703C12.8476 6.27381 13.3548 5.68079 13.8618 5.08756C13.6822 5.08756 13.5029 5.08756 13.3233 5.08756C14.3469 5.90898 15.3704 6.73036 16.394 7.55178C16.773 7.85599 17.3158 7.3207 16.9325 7.01327C15.9089 6.19185 14.8854 5.37047 13.8618 4.54905C13.7104 4.42749 13.4686 4.37904 13.3233 4.54905C12.8162 5.14228 12.309 5.7353 11.802 6.32853C11.4847 6.69962 12.0209 7.24106 12.3405 6.86703Z" fill="black"/>
<path d="M8.1889 17.5327C9.71884 17.5327 11.2488 17.5327 12.7787 17.5327C13.27 17.5327 13.27 16.771 12.7787 16.771C11.2487 16.771 9.7188 16.771 8.1889 16.771C7.69778 16.771 7.69778 17.5327 8.1889 17.5327Z" fill="black"/>
<path d="M15.459 13.846C15.8859 14.1168 15.7835 14.5532 15.9117 14.7685L15.9158 14.7713C15.9449 14.8204 16.0113 14.8666 16.0675 14.8768L16.0715 14.8796C16.12 14.8883 16.1567 14.891 16.2407 14.8572C16.2433 14.8535 16.2433 14.8535 16.2433 14.8535C16.3064 14.8224 16.1759 14.9755 18.2408 12.0145C18.3796 11.815 18.6725 11.777 18.8918 11.9295C19.1111 12.082 19.3755 12.508 19.237 12.7072L17.3459 15.4269C17.2753 15.5283 17.1089 15.531 17.2206 15.6086C17.3323 15.6862 17.4755 15.6675 17.5461 15.5661L19.6892 12.484C19.828 12.2844 20.1208 12.2465 20.3401 12.3989C20.5594 12.5514 20.6255 12.8396 20.487 13.0388C18.6007 15.9129 18.0375 16.1766 18.4173 16.4407C18.7843 16.6959 18.8107 16.1383 20.6339 13.6786C20.7727 13.479 21.0655 13.441 21.2848 13.5935C21.5041 13.746 21.5702 14.0341 21.4317 14.2333L19.5406 16.953C19.3734 17.1933 19.7721 17.4711 19.9395 17.2304L21.3261 15.2363C21.4648 15.0367 21.7577 14.9988 21.977 15.1512C22.1963 15.3037 22.2615 15.5907 22.1228 15.7903L19.4753 19.5976C18.8495 20.4977 17.7844 20.5952 17.747 20.5692C17.7236 20.569 17.6973 20.5724 17.6714 20.576C16.3679 20.6639 15.1454 19.7716 14.7968 18.5505C14.5379 17.9667 14.8986 16.6095 14.4131 14.4912C14.273 13.7295 15.1839 13.6547 15.459 13.846Z" fill="#FFC10E"/>
<path d="M20.5919 18.1285C20.7439 18.2343 20.9548 18.1943 21.0626 18.0393L22.2992 16.2609C22.6223 15.7962 22.5144 15.1607 22.0586 14.8438C21.6027 14.5268 20.9694 14.6469 20.6463 15.1115L19.4748 16.7963C19.367 16.9513 19.4029 17.1629 19.555 17.2687C19.7071 17.3744 19.918 17.3344 20.0257 17.1794L21.1973 15.4946C21.3051 15.3396 21.516 15.2996 21.668 15.4054C21.8201 15.5111 21.856 15.7227 21.7483 15.8777L20.5116 17.6562C20.4038 17.8112 20.4398 18.0228 20.5919 18.1285Z" fill="black"/>
<path d="M18.3231 16.6895C18.4752 16.7953 18.686 16.7553 18.7938 16.6003L20.6162 13.9795C20.724 13.8245 20.9349 13.7845 21.087 13.8902C21.239 13.996 21.275 14.2076 21.1672 14.3626L19.3448 16.9834C19.237 17.1384 19.273 17.3501 19.425 17.4558C19.5771 17.5615 19.788 17.5216 19.8958 17.3666L21.7182 14.7457C22.0413 14.2811 21.9333 13.6456 21.4775 13.3286C21.0217 13.0117 20.3884 13.1317 20.0653 13.5964L18.2429 16.2172C18.1351 16.3722 18.171 16.5838 18.3231 16.6895Z" fill="black"/>
<path d="M17.2209 15.9238C17.373 16.0296 17.5839 15.9896 17.6917 15.8346L19.7744 12.8393C19.8822 12.6843 20.0931 12.6444 20.2452 12.7501C20.3973 12.8558 20.4332 13.0675 20.3254 13.2225L18.2427 16.2177C18.1349 16.3727 18.1708 16.5843 18.3229 16.6901C18.475 16.7958 18.6859 16.7558 18.7936 16.6008L20.8764 13.6056C21.1995 13.141 21.0915 12.5055 20.6357 12.1885C20.1799 11.8715 19.5466 11.9916 19.2235 12.4562L17.1407 15.4515C17.0329 15.6065 17.0689 15.8181 17.2209 15.9238Z" fill="black"/>
<path d="M16.0096 15.3146C16.1617 15.4203 16.3726 15.3803 16.4804 15.2253L18.4121 12.4473C18.5199 12.2923 18.7308 12.2523 18.8829 12.358C19.0349 12.4638 19.0709 12.6754 18.9631 12.8304L17.1407 15.4512C17.0329 15.6062 17.0689 15.8178 17.2209 15.9236C17.373 16.0293 17.5839 15.9893 17.6917 15.8343L19.5141 13.2135C19.8372 12.7489 19.7292 12.1134 19.2734 11.7964C18.8176 11.4794 18.1842 11.5995 17.8612 12.0641L15.9294 14.8422C15.8216 14.9972 15.8576 15.2088 16.0096 15.3146Z" fill="black"/>
<path d="M15.7194 20.4337C16.4614 20.9497 18.1988 22.1578 19.6307 20.0986L21.1355 17.9345C21.2432 17.7795 21.2073 17.5679 21.0552 17.4621C20.9032 17.3564 20.6923 17.3964 20.5845 17.5514L19.0797 19.7154C18.2125 20.9626 17.3004 20.6999 16.1099 19.8721C15.2566 19.2788 14.8051 18.8248 14.8621 18.1269C14.9468 17.0905 14.8967 16.0764 14.7048 14.9348C14.7027 14.9245 14.5455 13.8904 15.0939 13.7451C15.1761 13.7234 15.2424 13.7345 15.3157 13.7827C15.5931 13.9606 15.7764 14.5191 15.8085 14.7213L15.8722 15.0967C15.9035 15.2812 16.078 15.4026 16.2619 15.3677C16.4458 15.3328 16.5695 15.155 16.5382 14.9705L16.475 14.5989C16.4353 14.348 16.1884 13.5542 15.69 13.2092C15.4598 13.0598 15.1983 13.0174 14.9337 13.0877C14.0074 13.3329 13.9358 14.4428 14.0393 15.0597C14.224 16.1591 14.2706 17.0912 14.1895 18.0824C14.0973 19.2064 14.8948 19.8603 15.7194 20.4337Z" fill="black"/>
</svg>
