
<svg width="21" height="20" viewBox="0 0 21 20" fill="none" xmlns="http://www.w3.org/2000/svg">
<ellipse cx="6.98305" cy="5.32869" rx="3.62166" ry="3.62166" stroke="#333333" stroke-width="1.2"/>
<circle cx="14.1343" cy="13.0703" r="5.07032" stroke="#333333" stroke-width="1.2"/>
<rect x="-0.5" y="0.5" width="5.5" height="2" rx="1" transform="matrix(1 0 0 -1 11.8842 14.5703)" stroke="#333333"/>
<path fill-rule="evenodd" clip-rule="evenodd" d="M10.3182 16.7934C9.93906 16.4458 9.61294 16.0413 9.35339 15.5934H2.99559V11.9501C2.99559 10.6246 4.07011 9.5501 5.39559 9.5501H8.57046C9.01511 9.5501 9.43152 9.67102 9.78859 9.88177C10.0458 9.56157 10.3412 9.27327 10.6677 9.02374C10.0771 8.59975 9.35295 8.3501 8.57046 8.3501H5.39559C3.40737 8.3501 1.79559 9.96187 1.79559 11.9501V16.1934C1.79559 16.5248 2.06422 16.7934 2.39559 16.7934H10.3182Z" fill="#333333"/>
</svg>
