<svg width="25" height="25" viewBox="0 0 25 25" fill="none" xmlns="http://www.w3.org/2000/svg">
<path d="M19.7578 2.29388H22.0812C22.5942 2.29388 23.0105 2.71023 23.0105 3.22323V15.7694C23.0105 16.2824 22.5942 16.6987 22.0812 16.6987H19.7578C19.2448 16.6987 18.8284 16.2824 18.8284 15.7694V3.22323C18.8284 2.71209 19.2467 2.29388 19.7578 2.29388Z" fill="#0EA8FF"/>
<path d="M5.81656 15.7693H11.1324C11.1324 15.7693 10.2031 17.1634 10.2031 19.4867C10.2031 22.2748 11.5971 23.2041 12.5264 23.2041C13.4558 23.2041 13.9205 22.7394 13.9205 20.4161C13.9205 17.1634 18.5672 14.84 18.5672 14.84L18.8274 14.7099V4.80307L18.5672 4.6172C18.5672 4.6172 15.3145 2.29383 8.34438 2.29383H6.85743C5.04521 2.29383 3.50249 3.59492 3.19581 5.37926L2.15494 11.42C1.76462 13.6969 3.51179 15.7693 5.81656 15.7693Z" fill="#F3F3F1"/>
<path d="M5.83244 4.6515C6.42333 2.96971 8.75349 2.79623 10.6877 2.55927C10.6877 1.69076 6.84296 2.27506 5.83244 2.55927C4.82191 2.84349 4.30614 3.49348 4.17457 3.78296C3.6614 6.08559 2.61139 10.8724 2.51666 11.5987C2.39824 12.5066 2.79297 12.6251 2.91139 13.8093C3.00613 14.7566 4.55613 15.3882 5.31929 15.5856L11.2009 15.783C11.0298 16.9803 10.7272 19.6909 10.8851 20.954C11.043 22.2172 12.0824 22.9803 12.5824 23.204C13.0693 23.0987 14.4626 22.595 13.4311 22.3949C12.3387 22.1831 11.8058 20.8751 11.569 19.7357C11.348 18.6723 12.0822 16.4647 12.1808 16.1238C12.2795 15.783 12.3653 15.4331 11.9903 15.1173C11.6153 14.8015 10.7006 14.816 10.7006 14.816C9.56899 14.8291 8.02031 14.7146 7.64136 14.6831C7.16768 14.6436 5.79296 14.6382 4.6877 13.8093C3.80979 13.1508 4.0526 11.8025 4.17201 11.1393L4.17457 11.1252C4.38509 9.63834 5.42191 5.81992 5.83244 4.6515Z" fill="#D5DBE1"/>
<path d="M19.7576 1.59664H22.0809C22.9777 1.59664 23.7073 2.32617 23.7073 3.22299V15.7692C23.7073 16.666 22.9777 17.3955 22.0809 17.3955H19.7576C18.8607 17.3955 18.1312 16.666 18.1312 15.7692V3.22299C18.1312 2.32617 18.8607 1.59664 19.7576 1.59664ZM22.0809 16.0015C22.2092 16.0015 22.3133 15.8974 22.3133 15.7692V3.22299C22.3133 3.09474 22.2092 2.99066 22.0809 2.99066H19.7576C19.6312 2.99066 19.5252 3.0966 19.5252 3.22299V15.7692C19.5252 15.8974 19.6293 16.0015 19.7576 16.0015H22.0809Z" fill="black"/>
<path d="M6.85726 1.59659H8.34422C15.4556 1.59659 18.8319 3.9497 18.9722 4.05007L19.2324 4.23594L18.422 5.37067L18.1618 5.1848C18.133 5.16435 14.9649 2.99154 8.34422 2.99154H6.85726C5.38332 2.99154 4.13242 4.04542 3.88243 5.49799L2.84156 11.5387C2.69008 12.4207 2.93357 13.3184 3.50884 14.0006C4.08317 14.6818 4.92423 15.0721 5.8164 15.0721H11.1323C11.3888 15.0721 11.6257 15.2134 11.7465 15.4401C11.8683 15.6669 11.8544 15.942 11.7122 16.1557C11.7066 16.165 10.8999 17.4271 10.8999 19.4865C10.8999 21.702 11.872 22.5069 12.5263 22.5069C12.8692 22.5069 13.2233 22.5069 13.2233 20.4158C13.2233 16.7747 18.0494 14.3193 18.2557 14.2162L18.5159 14.0861L19.1395 15.3332L18.8793 15.4634C18.8375 15.4838 14.6182 17.6352 14.6182 20.4158C14.6182 22.1017 14.4565 23.9009 12.5272 23.9009C11.4826 23.9009 9.50683 22.978 9.50683 19.4865C9.50683 18.2021 9.77076 17.1724 10.0328 16.4661H5.81733C4.51346 16.4661 3.28301 15.8946 2.44381 14.8983C1.60275 13.9011 1.24774 12.5898 1.46892 11.3008L2.50979 5.26007C2.87409 3.13745 4.70211 1.59659 6.85726 1.59659Z" fill="black"/>
</svg>
