<svg width="25" height="24" viewBox="0 0 25 24" fill="none" xmlns="http://www.w3.org/2000/svg">
<path d="M5.11233 22.4547H2.78896C2.27597 22.4547 1.85962 22.0383 1.85962 21.5253V8.97915C1.85962 8.46615 2.27597 8.0498 2.78896 8.0498H5.11233C5.62533 8.0498 6.04167 8.46615 6.04167 8.97915V21.5253C6.04167 22.0365 5.62347 22.4547 5.11233 22.4547Z" fill="#0EA8FF"/>
<path d="M19.0536 8.9792H13.7377C13.7377 8.9792 14.667 7.58518 14.667 5.26181C14.667 2.47378 13.273 1.54443 12.3437 1.54443C11.4143 1.54443 10.9497 2.00911 10.9497 4.33247C10.9497 7.58518 6.30294 9.90854 6.30294 9.90854L6.04272 10.0386V19.9455L6.30294 20.1313C6.30294 20.1313 9.55565 22.4547 16.5257 22.4547H18.0127C19.8249 22.4547 21.3676 21.1536 21.6743 19.3693L22.7152 13.3285C23.1055 11.0516 21.3583 8.9792 19.0536 8.9792Z" fill="#F3F3F1"/>
<path d="M8.39372 20.1318L8.13351 19.946V10.0391L8.39372 9.90903C8.39372 9.90903 13.0404 7.58567 13.0404 4.33296C13.0404 3.06068 13.1854 2.35717 13.4642 1.97056C13.0897 1.67317 12.6854 1.54492 12.3434 1.54492C11.4141 1.54492 10.9494 2.00959 10.9494 4.33296C10.9494 7.58567 6.3027 9.90903 6.3027 9.90903L6.04248 10.0391V19.946L6.3027 20.1318C6.3027 20.1318 9.5554 22.4552 16.5255 22.4552H18.0124C18.0515 22.4552 18.0877 22.4459 18.1258 22.445C11.5005 22.3381 8.39372 20.1318 8.39372 20.1318Z" fill="#D5DBE1"/>
<path d="M5.11232 23.1519H2.78895C1.89213 23.1519 1.1626 22.4224 1.1626 21.5255V8.97938C1.1626 8.08256 1.89213 7.35303 2.78895 7.35303H5.11232C6.00913 7.35303 6.73867 8.08256 6.73867 8.97938V21.5255C6.73867 22.4224 6.00913 23.1519 5.11232 23.1519ZM2.78895 8.74704C2.6607 8.74704 2.55662 8.85113 2.55662 8.97938V21.5255C2.55662 21.6538 2.6607 21.7579 2.78895 21.7579H5.11232C5.23871 21.7579 5.34465 21.6519 5.34465 21.5255V8.97938C5.34465 8.85113 5.24056 8.74704 5.11232 8.74704H2.78895Z" fill="black"/>
<path d="M18.0126 23.1519H16.5257C9.41431 23.1519 6.038 20.7988 5.89767 20.6985L5.63745 20.5126L6.44784 19.3779L6.70806 19.5637C6.73687 19.5842 9.905 21.757 16.5257 21.757H18.0126C19.4866 21.757 20.7375 20.7031 20.9874 19.2506L22.0283 13.2098C22.1798 12.3279 21.9363 11.4301 21.361 10.748C20.7867 10.0668 19.9456 9.67644 19.0535 9.67644H13.7376C13.4811 9.67644 13.2441 9.53518 13.1233 9.30842C13.0016 9.08166 13.0155 8.80657 13.1577 8.59282C13.1633 8.58353 13.97 7.32148 13.97 5.26205C13.97 3.04649 12.9979 2.24167 12.3436 2.24167C12.0007 2.24167 11.6466 2.24167 11.6466 4.3327C11.6466 7.97388 6.82051 10.4292 6.61419 10.5324L6.35398 10.6625L5.73039 9.41529L5.9906 9.28518C6.03242 9.26474 10.2516 7.1133 10.2516 4.3327C10.2516 2.64687 10.4134 0.847656 12.3427 0.847656C13.3873 0.847656 15.363 1.7705 15.363 5.26205C15.363 6.5464 15.0991 7.57612 14.837 8.28242H19.0525C20.3564 8.28242 21.5869 8.85397 22.4261 9.85022C23.2671 10.8474 23.6221 12.1587 23.401 13.4477L22.3601 19.4885C21.9958 21.6111 20.1678 23.1519 18.0126 23.1519Z" fill="black"/>
</svg>
