<svg width="25" height="25" viewBox="0 0 25 25" fill="none" xmlns="http://www.w3.org/2000/svg">
<!--<g clip-path="url(#clip0)">-->
<path d="M23.4056 9.20727C23.2443 5.78036 20.5914 3.07614 17.4214 3.05078C17.4058 3.05078 17.3908 3.05078 17.3752 3.05078C14.4459 3.05078 12.8132 5.2007 12.0456 6.65204C11.278 5.20075 9.64522 3.05078 6.71594 3.05078C6.70031 3.05078 6.68472 3.05078 6.66976 3.05078C3.49979 3.07618 0.846814 5.78036 0.68548 9.20727C0.487065 13.4096 3.84 16.2296 8.84827 20.4969C9.71538 21.2359 10.6378 22.0217 11.6071 22.87L12.0456 23.2538L12.484 22.87C13.4532 22.0217 14.3757 21.236 15.2428 20.4969C20.2511 16.2295 23.604 13.4096 23.4056 9.20727Z" fill="#F22727" fill-opacity="0.99"/>
<!--</g>-->
<defs>
<clipPath id="clip0">
<rect width="22.7368" height="22.7368" fill="white" transform="translate(0.677124 1.7832)"/>
</clipPath>
</defs>
</svg>
