<svg width="25" height="25" viewBox="0 0 25 25" fill="none" xmlns="http://www.w3.org/2000/svg">
<g clip-path="url(#clip0)">
<path d="M23.9441 9.08032C23.7827 5.6534 21.1298 2.94919 17.9598 2.92383C17.9442 2.92383 17.9293 2.92383 17.9137 2.92383C14.9844 2.92383 13.3516 5.07375 12.584 6.52509C11.8164 5.07379 10.1837 2.92383 7.25439 2.92383C7.23876 2.92383 7.22317 2.92383 7.20821 2.92383C4.03824 2.94923 1.38527 5.6534 1.22393 9.08032C1.02552 13.2826 4.37845 16.1026 9.38673 20.3699C10.2538 21.1089 11.1763 21.8947 12.1456 22.743L12.584 23.1268L13.0224 22.7431C13.9917 21.8948 14.9141 21.109 15.7813 20.37C20.7896 16.1026 24.1425 13.2826 23.9441 9.08032Z" fill="#F22727" fill-opacity="0.99"/>
</g>
<defs>
<clipPath id="clip0">
<rect width="22.7368" height="22.7368" fill="white" transform="translate(1.21558 1.65674)"/>
</clipPath>
</defs>
</svg>
