<svg width="24" height="24" viewBox="0 0 24 24" fill="none" xmlns="http://www.w3.org/2000/svg">
<path d="M12.0001 14.2505C13.2427 14.2505 14.2501 13.2431 14.2501 12.0005C14.2501 10.7578 13.2427 9.75049 12.0001 9.75049C10.7574 9.75049 9.75006 10.7578 9.75006 12.0005C9.75006 13.2431 10.7574 14.2505 12.0001 14.2505Z" fill="white"/>
<path d="M19.5001 14.2505C20.7427 14.2505 21.7501 13.2431 21.7501 12.0005C21.7501 10.7578 20.7427 9.75049 19.5001 9.75049C18.2574 9.75049 17.2501 10.7578 17.2501 12.0005C17.2501 13.2431 18.2574 14.2505 19.5001 14.2505Z" fill="white"/>
<path d="M4.50006 14.2505C5.7427 14.2505 6.75006 13.2431 6.75006 12.0005C6.75006 10.7578 5.7427 9.75049 4.50006 9.75049C3.25742 9.75049 2.25006 10.7578 2.25006 12.0005C2.25006 13.2431 3.25742 14.2505 4.50006 14.2505Z" fill="white"/>
</svg>
