<svg width="26" height="24" viewBox="0 0 26 24" fill="none" xmlns="http://www.w3.org/2000/svg">
<path d="M12.0001 14.25C13.2427 14.25 14.2501 13.2426 14.2501 12C14.2501 10.7574 13.2427 9.75 12.0001 9.75C10.7574 9.75 9.75006 10.7574 9.75006 12C9.75006 13.2426 10.7574 14.25 12.0001 14.25Z" fill="white"/>
<path d="M19.5001 14.25C20.7427 14.25 21.7501 13.2426 21.7501 12C21.7501 10.7574 20.7427 9.75 19.5001 9.75C18.2574 9.75 17.2501 10.7574 17.2501 12C17.2501 13.2426 18.2574 14.25 19.5001 14.25Z" fill="white"/>
<path d="M4.50006 14.25C5.7427 14.25 6.75006 13.2426 6.75006 12C6.75006 10.7574 5.7427 9.75 4.50006 9.75C3.25742 9.75 2.25006 10.7574 2.25006 12C2.25006 13.2426 3.25742 14.25 4.50006 14.25Z" fill="white"/>
<circle cx="22.5" cy="7.5" r="3.5" fill="#FF3B30"/>
</svg>
