<svg width="12" height="18" viewBox="0 0 12 18" fill="none" xmlns="http://www.w3.org/2000/svg">
<path d="M11 7.57164V9.00021C11 10.3263 10.4732 11.5981 9.53553 12.5357C8.59785 13.4734 7.32608 14.0002 6 14.0002M6 14.0002C4.67392 14.0002 3.40215 13.4734 2.46447 12.5357C1.52678 11.5981 1 10.3263 1 9.00021V7.57164M6 14.0002V16.8574M3.14286 16.8574H8.85714M6 1.14307C5.43168 1.14307 4.88663 1.36883 4.48477 1.77069C4.08291 2.17256 3.85714 2.7176 3.85714 3.28592V9.00021C3.85714 9.56853 4.08291 10.1136 4.48477 10.5154C4.88663 10.9173 5.43168 11.1431 6 11.1431C6.56832 11.1431 7.11337 10.9173 7.51523 10.5154C7.91709 10.1136 8.14286 9.56853 8.14286 9.00021V3.28592C8.14286 2.7176 7.91709 2.17256 7.51523 1.77069C7.11337 1.36883 6.56832 1.14307 6 1.14307Z" stroke="#333333" stroke-width="1.2" stroke-linecap="round" stroke-linejoin="round"/>
</svg>
