<svg width="18" height="18" viewBox="0 0 18 18" fill="none" xmlns="http://www.w3.org/2000/svg">
<path d="M1.14282 1.14523L16.8571 16.8595M11.1428 7.10237V3.28808C11.1434 2.75667 10.9464 2.24402 10.5902 1.84965C10.2341 1.45528 9.74404 1.20733 9.21532 1.15392C8.6866 1.10051 8.1569 1.24547 7.72905 1.56064C7.3012 1.87582 7.00571 2.33873 6.89997 2.85951M12.5714 12.5381C11.8741 13.2498 10.9801 13.737 10.004 13.9371C9.02789 14.1372 8.01427 14.0411 7.09318 13.6611C6.17208 13.2812 5.38551 12.6347 4.83437 11.8046C4.28324 10.9745 3.99268 9.99873 3.99997 9.00237V7.5738M14 7.5738V9.00237C13.9997 9.29697 13.9734 9.59097 13.9214 9.88094M8.99997 14.0024V16.8595M6.14282 16.8595H11.8571M6.85711 6.85951V9.00237C6.85748 9.42591 6.98336 9.83985 7.21884 10.1919C7.45433 10.5439 7.78886 10.8183 8.18018 10.9803C8.57151 11.1424 9.00207 11.1848 9.4175 11.1023C9.83292 11.0197 10.2146 10.816 10.5143 10.5167L6.85711 6.85951Z" stroke="#333333" stroke-width="1.2" stroke-linecap="round" stroke-linejoin="round"/>
</svg>
