<svg width="18" height="18" viewBox="0 0 18 18" fill="none" xmlns="http://www.w3.org/2000/svg">
<path d="M1.24585 1.14523L16.9601 16.8595M11.2459 7.10237V3.28808C11.2464 2.75667 11.0494 2.24402 10.6933 1.84965C10.3371 1.45528 9.84707 1.20733 9.31835 1.15392C8.78963 1.10051 8.25993 1.24547 7.83208 1.56064C7.40422 1.87582 7.10874 2.33873 7.00299 2.85951M12.6744 12.5381C11.9771 13.2498 11.0831 13.737 10.107 13.9371C9.13091 14.1372 8.1173 14.0411 7.1962 13.6611C6.27511 13.2812 5.48854 12.6347 4.9374 11.8046C4.38627 10.9745 4.0957 9.99873 4.10299 9.00237V7.5738M14.103 7.5738V9.00237C14.1027 9.29697 14.0764 9.59097 14.0244 9.88094M9.10299 14.0024V16.8595M6.24585 16.8595H11.9601M6.96014 6.85951V9.00237C6.96051 9.42591 7.08639 9.83985 7.32187 10.1919C7.55736 10.5439 7.89189 10.8183 8.28321 10.9803C8.67454 11.1424 9.1051 11.1848 9.52053 11.1023C9.93595 11.0197 10.3176 10.816 10.6173 10.5167L6.96014 6.85951Z" stroke="black" stroke-width="1.5" stroke-linecap="round" stroke-linejoin="round"/>
</svg>
