<svg width="18" height="22" viewBox="0 0 18 22" fill="none" xmlns="http://www.w3.org/2000/svg">
<path d="M5.13994 12.5308V4.53076C5.13994 4.13294 5.29797 3.75141 5.57928 3.4701C5.86058 3.1888 6.24211 3.03076 6.63994 3.03076C7.03776 3.03076 7.41929 3.1888 7.7006 3.4701C7.9819 3.75141 8.13994 4.13294 8.13994 4.53076M8.13994 4.53076V11.0308M8.13994 4.53076V2.53076C8.13994 2.13294 8.29797 1.75141 8.57928 1.4701C8.86058 1.1888 9.24211 1.03076 9.63994 1.03076C10.0378 1.03076 10.4193 1.1888 10.7006 1.4701C10.9819 1.75141 11.1399 2.13294 11.1399 2.53076V11.0308M11.1399 4.53076C11.1399 4.13294 11.298 3.75141 11.5793 3.4701C11.8606 3.1888 12.2421 3.03076 12.6399 3.03076C13.0378 3.03076 13.4193 3.1888 13.7006 3.4701C13.9819 3.75141 14.1399 4.13294 14.1399 4.53076V11.0308M14.1399 6.53076C14.1399 6.13294 14.298 5.75141 14.5793 5.4701C14.8606 5.1888 15.2421 5.03076 15.6399 5.03076C16.0378 5.03076 16.4193 5.1888 16.7006 5.4701C16.9819 5.75141 17.1399 6.13294 17.1399 6.53076V15.0308C17.1399 16.6221 16.5078 18.1482 15.3826 19.2734C14.2574 20.3986 12.7312 21.0308 11.1399 21.0308H9.13994C8.09634 20.8867 7.10435 20.542 6.2384 20.0224C5.37244 19.5029 4.65501 18.8219 4.13994 18.0308L1.43994 12.7808C1.17472 12.4161 1.06523 11.961 1.13556 11.5156C1.20588 11.0702 1.45026 10.671 1.81494 10.4058C2.17961 10.1405 2.6347 10.0311 3.0801 10.1014C3.5255 10.1717 3.92472 10.4161 4.18994 10.7808L5.08994 12.5308" stroke="white" stroke-width="1.5" stroke-linecap="round" stroke-linejoin="round"/>
</svg>
