<svg width="14" height="18" viewBox="0 0 14 18" fill="none" xmlns="http://www.w3.org/2000/svg">
<path d="M10.8889 5.49995C10.8889 5.19053 11.0119 4.89378 11.2307 4.67499C11.4494 4.45619 11.7462 4.33328 12.0556 4.33328C12.365 4.33328 12.6618 4.45619 12.8806 4.67499C13.0994 4.89378 13.2223 5.19053 13.2223 5.49995V12.1111C13.2223 13.3487 12.7306 14.5357 11.8554 15.4109C10.9803 16.2861 9.79329 16.7777 8.55561 16.7777H7.00005C6.18837 16.6657 5.41682 16.3976 4.7433 15.9935C4.06978 15.5894 3.51178 15.0598 3.11117 14.4444L1.01117 10.3611C0.804887 10.0774 0.719729 9.72346 0.774427 9.37704C0.829125 9.03062 1.0192 8.72011 1.30283 8.51383C1.58647 8.30755 1.94043 8.2224 2.28685 8.27709C2.63327 8.33179 2.94378 8.52187 3.15005 8.8055L3.85005 10.1666" fill="white"/>
<path d="M3.88894 10.1666V3.94439C3.88894 3.63497 4.01186 3.33822 4.23065 3.11943C4.44944 2.90064 4.74619 2.77772 5.05561 2.77772C5.36503 2.77772 5.66178 2.90064 5.88057 3.11943C6.09936 3.33822 6.22228 3.63497 6.22228 3.94439M6.22228 3.94439V8.99994M6.22228 3.94439V2.38883C6.22228 2.07942 6.34519 1.78267 6.56398 1.56388C6.78278 1.34508 7.07952 1.22217 7.38894 1.22217C7.69836 1.22217 7.99511 1.34508 8.2139 1.56388C8.43269 1.78267 8.55561 2.07942 8.55561 2.38883V8.99994M8.55561 3.94439C8.55561 3.63497 8.67853 3.33822 8.89732 3.11943C9.11611 2.90064 9.41286 2.77772 9.72228 2.77772C10.0317 2.77772 10.3284 2.90064 10.5472 3.11943C10.766 3.33822 10.8889 3.63497 10.8889 3.94439V8.99994M10.8889 5.49995C10.8889 5.19053 11.0119 4.89378 11.2307 4.67499C11.4494 4.45619 11.7462 4.33328 12.0556 4.33328C12.365 4.33328 12.6618 4.45619 12.8806 4.67499C13.0994 4.89378 13.2223 5.19053 13.2223 5.49995V12.1111C13.2223 13.3487 12.7306 14.5357 11.8554 15.4109C10.9803 16.2861 9.79329 16.7777 8.55561 16.7777H7.00005C6.18837 16.6657 5.41682 16.3976 4.7433 15.9935C4.06978 15.5894 3.51178 15.0598 3.11117 14.4444L1.01117 10.3611C0.804887 10.0774 0.719729 9.72346 0.774427 9.37704C0.829125 9.03062 1.0192 8.72011 1.30283 8.51383C1.58647 8.30755 1.94043 8.2224 2.28685 8.27709C2.63327 8.33179 2.94378 8.52187 3.15005 8.8055L3.85005 10.1666" stroke="#333333" stroke-width="1.2" stroke-linecap="round" stroke-linejoin="round"/>
</svg>
