<svg width="24" height="24" viewBox="0 0 24 24" fill="none" xmlns="http://www.w3.org/2000/svg">
<path d="M18.4265 9.5982L18.4265 9.5982L18.4268 9.59904C18.5298 9.88219 18.8002 10.076 19.0978 10.076C19.1734 10.076 19.2636 10.0636 19.3312 10.0368C19.7048 9.90735 19.8981 9.49512 19.769 9.13332C18.6221 5.83768 15.5314 3.60395 12.0418 3.60395C9.34585 3.60395 6.84847 4.93572 5.34255 7.11668L4.96352 4.17634C4.92434 3.77591 4.57441 3.50488 4.17543 3.55636C3.77593 3.60791 3.50469 3.9691 3.55625 4.35642C3.55626 4.35647 3.55626 4.35651 3.55627 4.35656L4.16817 9.15579C4.20727 9.51825 4.5178 9.77595 4.86583 9.77595H4.8659H4.86597H4.86604H4.86612H4.86619H4.86626H4.86634H4.86641H4.86649H4.86656H4.86664H4.86671H4.86679H4.86687H4.86695H4.86703H4.8671H4.86718H4.86726H4.86735H4.86743H4.86751H4.86759H4.86767H4.86776H4.86784H4.86792H4.86801H4.86809H4.86818H4.86827H4.86835H4.86844H4.86853H4.86862H4.86871H4.8688H4.86889H4.86898H4.86907H4.86916H4.86925H4.86934H4.86943H4.86953H4.86962H4.86971H4.86981H4.8699H4.87H4.8701H4.87019H4.87029H4.87039H4.87048H4.87058H4.87068H4.87078H4.87088H4.87098H4.87108H4.87118H4.87128H4.87139H4.87149H4.87159H4.87169H4.8718H4.8719H4.87201H4.87211H4.87222H4.87232H4.87243H4.87254H4.87264H4.87275H4.87286H4.87297H4.87308H4.87319H4.8733H4.87341H4.87352H4.87363H4.87374H4.87385H4.87396H4.87408H4.87419H4.8743H4.87442H4.87453H4.87464H4.87476H4.87488H4.87499H4.87511H4.87522H4.87534H4.87546H4.87558H4.87569H4.87581H4.87593H4.87605H4.87617H4.87629H4.87641H4.87653H4.87665H4.87677H4.8769H4.87702H4.87714H4.87726H4.87739H4.87751H4.87764H4.87776H4.87789H4.87801H4.87814H4.87826H4.87839H4.87851H4.87864H4.87877H4.8789H4.87902H4.87915H4.87928H4.87941H4.87954H4.87967H4.8798H4.87993H4.88006H4.88019H4.88032H4.88045H4.88059H4.88072H4.88085H4.88098H4.88112H4.88125H4.88138H4.88152H4.88165H4.88179H4.88192H4.88206H4.88219H4.88233H4.88247H4.8826H4.88274H4.88288H4.88301H4.88315H4.88329H4.88343H4.88357H4.88371H4.88384H4.88398H4.88412H4.88426H4.8844H4.88454H4.88469H4.88483H4.88497H4.88511H4.88525H4.88539H4.88554H4.88568H4.88582H4.88597H4.88611H4.88625H4.8864H4.88654H4.88669H4.88683H4.88698H4.88712H4.88727H4.88741H4.88756H4.8877H4.88785H4.888H4.88814H4.88829H4.88844H4.88859H4.88873H4.88888H4.88903H4.88918H4.88933H4.88948H4.88963H4.88978H4.88993H4.89008H4.89023H4.89038H4.89053H4.89068H4.89083H4.89098H4.89113H4.89128H4.89143H4.89159H4.89174H4.89189H4.89204H4.89219H4.89235H4.8925H4.89265H4.89281H4.89296H4.89312H4.89327H4.89342H4.89358H4.89373H4.89389H4.89404H4.8942H4.89435H4.89451H4.89466H4.89482H4.89497H4.89513H4.89529H4.89544H4.8956H4.89576H4.89591H4.89607H4.89623H4.89638H4.89654H4.8967H4.89686H4.89702H4.89717H4.89733H4.89749H4.89765H4.89781H4.89797H4.89812H4.89828H4.89844H4.8986H4.89876H4.89892H4.89908H4.89924H4.8994H4.89956H4.89972H4.89988H4.90004H4.9002H4.90036H4.90052H4.90068H4.90084H4.901H4.90116H4.90133H4.90149H4.90165H4.90181H4.90197H4.90213H4.90229H4.90246H4.90262H4.90278H4.90294H4.9031H4.90327H4.90343H4.90359H4.90375H4.90391H4.90408H4.90424H4.9044H4.90457H4.90473H4.90489H4.90505H4.90522H4.90538H4.90554H4.90571H4.90587H4.90603H4.9062H4.90636H4.90652H4.90669H4.90685H4.90701H4.90718H4.90734H4.9075H4.90767H4.90783H4.90799H4.90816H4.90832H4.90849H4.90865H4.90881H4.90898H4.90914H4.90931H4.90947H4.90963H4.9098H4.90996H4.91013H4.91029H4.91045H4.91062H4.91078H4.91095H4.91111H4.91127H4.91144H4.9116H4.91177H4.91193H4.91209H4.91226H4.91242H4.91259H4.91275H4.91291H4.91308H4.91324H4.91341H4.91357H4.91373H4.9139H4.91406H4.91423H4.91439H4.91455H4.91472H4.91488H4.91504H4.91521H4.91537H4.91553H4.9157H4.91586H4.91602H4.91619H4.91635H4.91651H4.91668H4.91684H4.917H4.91717H4.91733H4.91749H4.91766H4.91782H4.91798H4.91814H4.91831H4.91847H4.91863H4.91879H4.91896H4.91912H4.91928H4.91944H4.9196H4.91977H4.91993H4.92009H4.92025H4.92041H4.92057H4.92074H4.9209H4.92106H4.92122H4.92138H4.92154H4.9217H4.92186H4.92202H4.92218H4.92234H4.9225H4.92266H4.92282H4.92298H4.92314H4.9233H4.92346H4.92362H4.92378H4.92394H4.9241H4.92426H4.92442H4.92458H4.92473H4.92489H4.92505H4.92521H4.92537H4.92552H4.92568H4.92584H4.926H4.92615H4.92631H4.92647H4.92663H4.92678H4.92694H4.92709H4.92725H4.92741H4.92756H4.92772H4.92787H4.92803H4.92818H4.92834H4.92849H4.92865H4.9288H4.92896H4.92911H4.92927H4.92942H4.92957H4.92973H4.92988H4.93003H4.93019H4.93034H4.93049H4.93064H4.93079H4.93095H4.9311H4.93125H4.9314H4.93155H4.9317H4.93185H4.932H4.93215H4.9323H4.93245H4.9326H4.93275H4.9329H4.93305H4.9332H4.93335H4.9335H4.93364H4.93379H4.93394H4.93409H4.93423H4.93438H4.93453H4.93467H4.93482H4.93497H4.93511H4.93526H4.9354H4.93555H4.93569H4.93584H4.93598H4.93612H4.93627H4.93641H4.93655H4.9367H4.93684H4.93698H4.93712H4.93727H4.93741H4.93755H4.93769H4.93783V9.77627L4.94348 9.77563L9.69481 9.2357C9.69492 9.23569 9.69504 9.23568 9.69515 9.23567C10.0846 9.19653 10.3537 8.8344 10.3157 8.44986C10.2893 8.04882 9.92717 7.76495 9.53972 7.81632L6.35478 8.17667C7.5801 6.23813 9.74203 5.02395 12.0538 5.02395C14.9243 5.02395 17.4854 6.85821 18.4265 9.5982ZM19.8969 13.1562L19.8962 13.1563L15.1562 13.6963L15.1552 13.6964C14.7701 13.7477 14.4845 14.083 14.5362 14.4844L14.5363 14.4846C14.5876 14.8694 14.9221 15.1546 15.3108 15.1157L15.3115 15.1156L18.0778 14.8018C16.9544 17.1139 14.6201 18.592 12.0178 18.592C9.06417 18.592 6.40785 16.6148 5.56195 13.7803C5.45823 13.3929 5.06949 13.186 4.69501 13.3022C4.32169 13.4181 4.10169 13.8173 4.218 14.1925C4.7131 15.8467 5.75131 17.3315 7.11555 18.3697L7.11572 18.3699C8.54026 19.4443 10.2428 20.024 12.0298 20.024C15.2291 20.024 18.1143 18.1403 19.4303 15.2744L19.8642 18.7681L19.8643 18.769C19.9157 19.1289 20.2122 19.388 20.5618 19.388H20.562H20.5623H20.5625H20.5627H20.5629H20.5631H20.5633H20.5635H20.5637H20.5639H20.5641H20.5643H20.5646H20.5648H20.565H20.5652H20.5654H20.5656H20.5658H20.566H20.5662H20.5664H20.5666H20.5668H20.567H20.5672H20.5674H20.5676H20.5678H20.568H20.5682H20.5684H20.5686H20.5688H20.569H20.5693H20.5695H20.5697H20.5699H20.5701H20.5703H20.5705H20.5707H20.5709H20.5711H20.5713H20.5715H20.5717H20.5718H20.572H20.5722H20.5724H20.5726H20.5728H20.573H20.5732H20.5734H20.5736H20.5738H20.574H20.5742H20.5744H20.5746H20.5748H20.575H20.5752H20.5754H20.5756H20.5758H20.576H20.5761H20.5763H20.5765H20.5767H20.5769H20.5771H20.5773H20.5775H20.5777H20.5779H20.5781H20.5783H20.5784H20.5786H20.5788H20.579H20.5792H20.5794H20.5796H20.5798H20.58H20.5801H20.5803H20.5805H20.5807H20.5809H20.5811H20.5813H20.5815H20.5816H20.5818H20.582H20.5822H20.5824H20.5826H20.5828H20.5829H20.5831H20.5833H20.5835H20.5837H20.5839H20.584H20.5842H20.5844H20.5846H20.5848H20.585H20.5851H20.5853H20.5855H20.5857H20.5859H20.586H20.5862H20.5864H20.5866H20.5868H20.587H20.5871H20.5873H20.5875H20.5877H20.5878H20.588H20.5882H20.5884H20.5886H20.5887H20.5889H20.5891H20.5893H20.5894H20.5896H20.5898H20.59H20.5902H20.5903H20.5905H20.5907H20.5909H20.591H20.5912H20.5914H20.5916H20.5917H20.5919H20.5921H20.5923H20.5924H20.5926H20.5928H20.593H20.5931H20.5933H20.5935H20.5936H20.5938H20.594H20.5942H20.5943H20.5945H20.5947H20.5948H20.595H20.5952H20.5954H20.5955H20.5957H20.5959H20.596H20.5962H20.5964H20.5966H20.5967H20.5969H20.5971H20.5972H20.5974H20.5976H20.5977H20.5979H20.5981H20.5982H20.5984H20.5986H20.5987H20.5989H20.5991H20.5992H20.5994H20.5996H20.5997H20.5999H20.6001H20.6002H20.6004H20.6006H20.6007H20.6009H20.6011H20.6012H20.6014H20.6016H20.6017H20.6019H20.6021H20.6022H20.6024H20.6025H20.6027H20.6029H20.603H20.6032H20.6034H20.6035H20.6037H20.6038H20.604H20.6042H20.6043H20.6045H20.6047H20.6048H20.605H20.6051H20.6053H20.6055H20.6056H20.6058H20.6059H20.6061H20.6063H20.6064H20.6066H20.6067H20.6069H20.6071H20.6072H20.6074H20.6075H20.6077H20.6079H20.608H20.6082H20.6083H20.6085H20.6086H20.6088H20.609H20.6091H20.6093H20.6094H20.6096H20.6098H20.6099H20.6101H20.6102H20.6104H20.6105H20.6107H20.6108H20.611H20.6112H20.6113H20.6115H20.6116H20.6118H20.6119H20.6121H20.6122H20.6124H20.6126H20.6127H20.6129H20.613H20.6132H20.6133H20.6135H20.6136H20.6138H20.6139H20.6141H20.6143H20.6144H20.6146H20.6147H20.6149H20.615H20.6152H20.6153H20.6155H20.6156H20.6158H20.6159H20.6161H20.6162H20.6164H20.6165H20.6167H20.6168H20.617H20.6171H20.6173H20.6174H20.6176H20.6177H20.6179H20.618H20.6182H20.6183H20.6185H20.6187H20.6188H20.6189H20.6191H20.6192H20.6194H20.6195H20.6197H20.6198H20.62H20.6201H20.6203H20.6204H20.6206H20.6207H20.6209H20.621H20.6212H20.6213H20.6215H20.6216H20.6218H20.6219H20.6221H20.6222H20.6224H20.6225H20.6227H20.6228H20.623H20.6231H20.6233H20.6234H20.6236H20.6237H20.6238H20.624H20.6241H20.6243H20.6244H20.6246H20.6247H20.6249H20.625H20.6252H20.6253H20.6255H20.6256H20.6258H20.6259H20.626H20.6262H20.6263H20.6265H20.6266H20.6268H20.6269H20.6271H20.6272H20.6274H20.6275H20.6276H20.6278H20.6279H20.6281H20.6282H20.6284H20.6285H20.6287H20.6288H20.6289H20.6291H20.6292H20.6294H20.6295H20.6297H20.6298H20.63H20.6301H20.6302H20.6304H20.6305H20.6307H20.6308H20.631H20.6311H20.6313H20.6314H20.6315H20.6317H20.6318H20.632H20.6321H20.6323H20.6324H20.6325H20.6327H20.6328H20.633H20.6331H20.6333H20.6334H20.6335H20.6337H20.6338H20.634H20.6341H20.6343H20.6344H20.6345H20.6347H20.6348H20.635H20.6351H20.6352H20.6354H20.6355H20.6357H20.6358H20.636H20.6361H20.6362H20.6364H20.6365H20.6367H20.6368H20.6369H20.6371H20.6372H20.6374H20.6375H20.6377H20.6378H20.6379H20.6381H20.6382H20.6384H20.6385H20.6386H20.6388H20.6389H20.6391H20.6392H20.6394H20.6395H20.6396H20.6398H20.6399H20.6401H20.6402H20.6403H20.6405H20.6406H20.6408H20.6409H20.641H20.6412H20.6413H20.6415H20.6416H20.6418H20.6419H20.642H20.6422H20.6423H20.6425H20.6426H20.6427H20.6429H20.643H20.6432H20.6433H20.6434H20.6436H20.6437H20.6439H20.644H20.6441H20.6443H20.6444H20.6446H20.6447H20.6448H20.645H20.6451H20.6453H20.6454H20.6456H20.6457H20.6458V19.3884L20.6524 19.3875C21.0402 19.3358 21.3101 18.9869 21.2716 18.5891L21.2716 18.5891L21.2714 18.5876L20.6596 13.7891C20.6329 13.3879 20.2826 13.1176 19.8969 13.1562Z" fill="white" stroke="white" stroke-width="0.1"/>
</svg>
