<svg width="20" height="20" viewBox="0 0 20 20" fill="none" xmlns="http://www.w3.org/2000/svg">
<path d="M10.3853 3C10.7453 3 11.0371 3.35751 11.0371 3.79852V10.1867C11.0371 10.6277 10.7453 10.9852 10.3853 10.9852L2.56299 10.9852C2.20298 10.9852 1.91113 10.6277 1.91113 10.1867L1.91113 3.79852C1.91113 3.35751 2.20298 3 2.56299 3L10.3853 3Z" fill="white" fill-opacity="0.5" stroke="#333333" stroke-width="1.2"/>
<path d="M15.926 5.3335C16.376 5.3335 16.7408 5.79315 16.7408 6.36017V14.5735C16.7408 15.1406 16.376 15.6002 15.926 15.6002L6.14819 15.6002C5.69818 15.6002 5.33337 15.1406 5.33337 14.5735L5.33337 6.36017C5.33337 5.79315 5.69818 5.3335 6.14819 5.3335L15.926 5.3335Z" fill="white" stroke="#333333" stroke-width="1.5"/>
<path d="M15.926 5.3335C16.376 5.3335 16.7408 5.79315 16.7408 6.36017V14.5735C16.7408 15.1406 16.376 15.6002 15.926 15.6002L6.14819 15.6002C5.69818 15.6002 5.33337 15.1406 5.33337 14.5735L5.33337 6.36017C5.33337 5.79315 5.69818 5.3335 6.14819 5.3335L15.926 5.3335Z" stroke="#333333" stroke-width="1.5"/>
</svg>
