<svg width="21" height="18" viewBox="0 0 21 18" fill="none" xmlns="http://www.w3.org/2000/svg">
<path d="M12.0019 0.930665C12.4647 0.930665 12.84 1.39032 12.84 1.95734V10.1707C12.84 10.7377 12.4647 11.1974 12.0019 11.1974L1.94467 11.1974C1.4818 11.1974 1.10657 10.7377 1.10657 10.1707L1.10657 1.95734C1.10657 1.39032 1.4818 0.930664 1.94467 0.930664L12.0019 0.930665Z" stroke="white" stroke-width="1.2"/>
<path d="M19.1257 3.93066C19.7043 3.93066 20.1733 4.52165 20.1733 5.25067V15.8107C20.1733 16.5397 19.7043 17.1307 19.1257 17.1307L6.55422 17.1307C5.97563 17.1307 5.50659 16.5397 5.50659 15.8107L5.50659 5.25067C5.50659 4.52165 5.97563 3.93066 6.55422 3.93066L19.1257 3.93066Z" fill="white"/>
<path d="M19.1257 3.93066C19.7043 3.93066 20.1733 4.52165 20.1733 5.25067V15.8107C20.1733 16.5397 19.7043 17.1307 19.1257 17.1307L6.55422 17.1307C5.97563 17.1307 5.50659 16.5397 5.50659 15.8107L5.50659 5.25067C5.50659 4.52165 5.97563 3.93066 6.55422 3.93066L19.1257 3.93066Z" stroke="white" stroke-width="1.5"/>
</svg>
