<svg width="24" height="21" viewBox="0 0 24 21" fill="none" xmlns="http://www.w3.org/2000/svg">
<path d="M10.4582 19.7371C15.7601 19.7371 20.0582 15.439 20.0582 10.1371C20.0582 4.83518 15.7601 0.537109 10.4582 0.537109C5.15622 0.537109 0.858154 4.83518 0.858154 10.1371C0.858154 15.439 5.15622 19.7371 10.4582 19.7371Z" fill="#FFC10E"/>
<path d="M16.3809 10.1433C16.3269 13.4126 13.7268 16.0125 10.4575 16.0665C7.18808 16.1204 4.587 13.3311 4.53437 10.1433C4.52635 9.65508 3.76841 9.65431 3.77643 10.1433C3.8372 13.8267 6.77405 16.7636 10.4575 16.8244C14.1412 16.8851 17.0794 13.7353 17.1388 10.1433C17.1469 9.65431 16.3889 9.65508 16.3809 10.1433Z" fill="black"/>
<path d="M7.54017 8.33327C8.37285 8.33327 9.04787 7.65825 9.04787 6.82557C9.04787 5.99289 8.37285 5.31787 7.54017 5.31787C6.70749 5.31787 6.03247 5.99289 6.03247 6.82557C6.03247 7.65825 6.70749 8.33327 7.54017 8.33327Z" fill="black"/>
<path d="M13.2413 8.33327C14.074 8.33327 14.749 7.65825 14.749 6.82557C14.749 5.99289 14.074 5.31787 13.2413 5.31787C12.4087 5.31787 11.7336 5.99289 11.7336 6.82557C11.7336 7.65825 12.4087 8.33327 13.2413 8.33327Z" fill="black"/>
<path d="M15.3899 11.9305C15.8168 12.2012 15.7144 12.6377 15.8426 12.8529L15.8467 12.8557C15.8758 12.9048 15.9422 12.9511 15.9984 12.9612L16.0024 12.964C16.0509 12.9727 16.0876 12.9755 16.1716 12.9417C16.1742 12.938 16.1742 12.938 16.1742 12.938C16.2373 12.9068 16.1068 13.06 18.1718 10.099C18.3105 9.89944 18.6034 9.86147 18.8227 10.014C19.042 10.1664 19.3064 10.5925 19.1679 10.7917L17.2768 13.5113C17.2062 13.6128 17.0398 13.6154 17.1515 13.6931C17.2632 13.7707 17.4064 13.752 17.477 13.6506L19.6201 10.5685C19.7589 10.3689 20.0517 10.3309 20.271 10.4834C20.4903 10.6359 20.5564 10.924 20.4179 11.1232C18.5316 13.9973 17.9684 14.2611 18.3482 14.5252C18.7152 14.7804 18.7416 14.2228 20.5648 11.763C20.7036 11.5635 20.9964 11.5255 21.2157 11.678C21.435 11.8305 21.5011 12.1186 21.3626 12.3178L19.4715 15.0375C19.3043 15.2778 19.703 15.5556 19.8704 15.3148L21.257 13.3208C21.3957 13.1212 21.6886 13.0832 21.9079 13.2357C22.1272 13.3882 22.1924 13.6752 22.0537 13.8748L19.4062 17.6821C18.7804 18.5821 17.7153 18.6797 17.6779 18.6536C17.6545 18.6535 17.6282 18.6569 17.6023 18.6605C16.2988 18.7483 15.0763 17.8561 14.7277 16.635C14.4688 16.0512 14.8295 14.694 14.344 12.5757C14.204 11.814 15.1148 11.7392 15.3899 11.9305Z" fill="#FFC10E"/>
<path d="M20.5228 16.213C20.6748 16.3187 20.8857 16.2788 20.9935 16.1238L22.2301 14.3453C22.5532 13.8807 22.4453 13.2452 21.9895 12.9282C21.5336 12.6113 20.9003 12.7313 20.5772 13.196L19.4057 14.8808C19.2979 15.0358 19.3338 15.2474 19.4859 15.3532C19.638 15.4589 19.8489 15.4189 19.9567 15.2639L21.1282 13.5791C21.236 13.4241 21.4469 13.3841 21.5989 13.4899C21.751 13.5956 21.787 13.8072 21.6792 13.9622L20.4425 15.7406C20.3348 15.8956 20.3707 16.1073 20.5228 16.213Z" fill="black"/>
<path d="M18.254 14.774C18.4061 14.8798 18.617 14.8398 18.7247 14.6848L20.5471 12.064C20.6549 11.909 20.8658 11.869 21.0179 11.9747C21.17 12.0805 21.2059 12.2921 21.0981 12.4471L19.2757 15.0679C19.1679 15.2229 19.2039 15.4345 19.3559 15.5403C19.508 15.646 19.7189 15.606 19.8267 15.451L21.6491 12.8302C21.9722 12.3656 21.8642 11.7301 21.4084 11.4131C20.9526 11.0961 20.3193 11.2162 19.9962 11.6808L18.1738 14.3017C18.066 14.4567 18.1019 14.6683 18.254 14.774Z" fill="black"/>
<path d="M17.1519 14.0083C17.3039 14.114 17.5148 14.0741 17.6226 13.919L19.7053 10.9238C19.8131 10.7688 20.024 10.7288 20.1761 10.8346C20.3282 10.9403 20.3641 11.1519 20.2563 11.3069L18.1736 14.3022C18.0658 14.4572 18.1017 14.6688 18.2538 14.7745C18.4059 14.8803 18.6168 14.8403 18.7245 14.6853L20.8073 11.6901C21.1304 11.2254 21.0224 10.5899 20.5666 10.273C20.1108 9.956 19.4775 10.0761 19.1544 10.5407L17.0716 13.5359C16.9638 13.6909 16.9998 13.9025 17.1519 14.0083Z" fill="black"/>
<path d="M15.9405 13.399C16.0926 13.5048 16.3035 13.4648 16.4113 13.3098L18.343 10.5317C18.4508 10.3767 18.6617 10.3367 18.8138 10.4425C18.9659 10.5482 19.0018 10.7598 18.894 10.9149L17.0716 13.5357C16.9638 13.6907 16.9998 13.9023 17.1518 14.008C17.3039 14.1138 17.5148 14.0738 17.6226 13.9188L19.445 11.298C19.7681 10.8333 19.6601 10.1979 19.2043 9.88088C18.7485 9.56391 18.1152 9.68397 17.7921 10.1486L15.8603 12.9267C15.7525 13.0817 15.7885 13.2933 15.9405 13.399Z" fill="black"/>
<path d="M15.6503 18.5182C16.3923 19.0341 18.1297 20.2422 19.5616 18.183L21.0664 16.019C21.1741 15.864 21.1382 15.6524 20.9861 15.5466C20.8341 15.4409 20.6232 15.4808 20.5154 15.6359L19.0106 17.7999C18.1434 19.047 17.2313 18.7844 16.0408 17.9566C15.1876 17.3633 14.736 16.9093 14.793 16.2113C14.8778 15.1749 14.8276 14.1609 14.6357 13.0193C14.6336 13.0089 14.4764 11.9748 15.0248 11.8296C15.107 11.8079 15.1733 11.819 15.2466 11.8672C15.524 12.0451 15.7073 12.6035 15.7394 12.8058L15.8031 13.1812C15.8345 13.3657 16.0089 13.487 16.1928 13.4522C16.3767 13.4173 16.5004 13.2395 16.4691 13.0549L16.4059 12.6833C16.3663 12.4325 16.1194 11.6387 15.6209 11.2937C15.3907 11.1443 15.1293 11.1019 14.8646 11.1722C13.9383 11.4173 13.8667 12.5273 13.9702 13.1441C14.1549 14.2435 14.2015 15.1757 14.1204 16.1669C14.0282 17.2908 14.8257 17.9448 15.6503 18.5182Z" fill="black"/>
</svg>
