<svg width="24" height="24" viewBox="0 0 24 24" fill="none" xmlns="http://www.w3.org/2000/svg">
<path fill-rule="evenodd" clip-rule="evenodd" d="M5.63868 5.73727C5.63868 3.96448 7.07581 2.52734 8.8486 2.52734C10.6214 2.52734 12.0585 3.96448 12.0585 5.73727C12.0585 7.51006 10.6214 8.94719 8.8486 8.94719C7.07581 8.94719 5.63868 7.51006 5.63868 5.73727ZM8.8486 1.02734C6.24738 1.02734 4.13868 3.13605 4.13868 5.73727C4.13868 8.33849 6.24738 10.4472 8.8486 10.4472C11.4498 10.4472 13.5585 8.33849 13.5585 5.73727C13.5585 3.13605 11.4498 1.02734 8.8486 1.02734ZM1.01343 19.0238C1.01343 14.7436 4.48322 11.2738 8.76343 11.2738H8.93417C10.3713 11.2738 11.717 11.665 12.8707 12.3466C12.1277 12.627 11.3664 12.9078 10.8643 13.0776C10.2564 12.8804 9.60773 12.7738 8.93417 12.7738H8.76343C5.47299 12.7738 2.77644 15.3166 2.53155 18.5443H11.2476C11.5643 19.0855 11.9329 19.6122 12.344 20.0443H1.76343H1.01343V19.2943V19.0238Z" fill="black"/>
<path fill-rule="evenodd" clip-rule="evenodd" d="M16.9977 10.4006C17.0627 10.4315 17.1241 10.4722 17.1795 10.5226C18.4844 11.6739 20.1858 12.2731 21.9244 12.1936C22.2695 12.1778 22.5808 12.3998 22.6782 12.7313C22.9885 13.7868 23.0835 14.8939 22.9574 15.9868C22.8314 17.0797 22.4869 18.1361 21.9445 19.0933C21.4021 20.0505 20.6729 20.8888 19.8001 21.5586C18.9273 22.2283 17.9287 22.7158 16.8638 22.992C16.7403 23.0241 16.6107 23.0241 16.4872 22.992C15.4223 22.7158 14.4237 22.2283 13.5509 21.5586C12.6781 20.8888 11.9489 20.0505 11.4065 19.0933C10.8641 18.1361 10.5196 17.0797 10.3936 15.9868C10.2675 14.8939 10.3625 13.7868 10.6728 12.7313C10.7702 12.3998 11.0815 12.1778 11.4266 12.1936C13.1652 12.2731 14.8666 11.6739 16.1715 10.5226C16.2269 10.4722 16.2883 10.4315 16.3534 10.4006C16.4553 10.3521 16.5656 10.3281 16.6755 10.3281C16.7854 10.3281 16.8957 10.3521 16.9977 10.4006ZM11.9766 13.697C13.676 13.6466 15.3184 13.0695 16.6755 12.046C18.0326 13.0695 19.675 13.6466 21.3744 13.697C21.5172 14.3924 21.5489 15.1073 21.4673 15.8149C21.3643 16.7081 21.0828 17.5715 20.6395 18.3538C20.1962 19.136 19.6002 19.8212 18.8869 20.3686C18.2253 20.8763 17.4752 21.2558 16.6755 21.4883C15.8758 21.2558 15.1257 20.8763 14.4641 20.3686C13.7508 19.8212 13.1548 19.136 12.7115 18.3538C12.2682 17.5715 11.9867 16.7081 11.8837 15.8149C11.8021 15.1073 11.8338 14.3924 11.9766 13.697ZM19.0705 15.9588C19.3634 15.6659 19.3634 15.191 19.0705 14.8981C18.7776 14.6052 18.3027 14.6052 18.0098 14.8981L16.054 16.854L15.3412 16.1412C15.0483 15.8483 14.5734 15.8483 14.2805 16.1412C13.9876 16.4341 13.9876 16.909 14.2805 17.2019L15.5236 18.445C15.6643 18.5856 15.855 18.6647 16.054 18.6647C16.2529 18.6647 16.4436 18.5856 16.5843 18.445L19.0705 15.9588Z" fill="black"/>
</svg>
