<svg width="22" height="20" viewBox="0 0 22 20" fill="none" xmlns="http://www.w3.org/2000/svg">
<mask id="mask0" mask-type="alpha" maskUnits="userSpaceOnUse" x="3" y="0" width="16" height="12">
<rect x="4.0625" y="0.859375" width="13.5515" height="9.72146" fill="#C4C4C4" stroke="white"/>
</mask>
<g mask="url(#mask0)">
<rect width="12.6152" height="8.30729" rx="2" transform="matrix(0.934548 -0.355837 0.29083 0.956775 3.70605 4.91406)" fill="#84C857"/>
<path d="M8.18917 7.4067L10.8093 8.7277L13.2847 3.70962" stroke="white" stroke-width="1.2" stroke-linecap="round"/>
</g>
<line x1="1.1625" y1="10.4801" x2="20.8604" y2="10.4801" stroke="#84C857" stroke-width="1.2" stroke-linecap="round"/>
<path fill-rule="evenodd" clip-rule="evenodd" d="M6.78297 18.7382C6.53076 18.4682 6.33501 18.1595 6.19557 17.812C6.05597 17.4646 5.98631 17.1065 5.98642 16.7376C5.98642 16.3635 6.05885 16.0027 6.20366 15.6552C6.34848 15.3078 6.55098 15.0018 6.81124 14.7371C7.07132 14.4725 7.37979 14.2614 7.73659 14.1037C8.09333 13.9461 8.4836 13.8672 8.90745 13.8672C9.34194 13.8672 9.73626 13.9501 10.0903 14.1157C10.4444 14.2815 10.7474 14.5006 10.9996 14.7732C11.2517 15.0458 11.4462 15.3559 11.583 15.7033C11.7197 16.0508 11.7881 16.4062 11.7881 16.7697C11.7881 17.1439 11.7158 17.5033 11.5709 17.8481C11.426 18.1929 11.2248 18.4976 10.9674 18.7622C10.7099 19.0268 10.4027 19.2392 10.046 19.3996C9.68921 19.56 9.29894 19.6401 8.87519 19.6401C8.44064 19.6401 8.04639 19.5573 7.69225 19.3916C7.33823 19.226 7.03508 19.0081 6.78297 18.7382ZM7.89343 15.7233C7.78608 15.865 7.70694 16.0254 7.65601 16.2044C7.60502 16.3836 7.57964 16.5666 7.57958 16.7537C7.57958 16.9461 7.60635 17.1319 7.66005 17.311C7.71353 17.4901 7.794 17.6491 7.90141 17.788C8.0087 17.9271 8.14409 18.0393 8.3078 18.1248C8.47135 18.2103 8.66582 18.253 8.89116 18.253C9.11649 18.253 9.31224 18.2089 9.47861 18.1207C9.64481 18.0325 9.78037 17.9177 9.885 17.776C9.98958 17.6344 10.0673 17.4726 10.1183 17.2909C10.1693 17.1092 10.1948 16.9248 10.1948 16.7376C10.1948 16.5451 10.1679 16.3595 10.1143 16.1804C10.0606 16.0013 9.97878 15.8436 9.86888 15.7073C9.75887 15.571 9.62209 15.4615 9.45849 15.3786C9.29484 15.2958 9.10308 15.2543 8.88318 15.2543C8.65784 15.2543 8.46331 15.2971 8.29977 15.3826C8.13606 15.4682 8.00066 15.5818 7.89343 15.7233ZM6.09072 13.8982L3.99051 19.591H2.68692L0.5625 13.8982H2.22017L3.33872 17.6266L4.44114 13.8982H6.09072ZM13.6066 19.5916H15.1758V15.2619H16.8174V13.8989H11.9571V15.2619H13.6066V19.5916ZM18.9579 18.2286H21.4604V19.5916H17.3888V13.8989H21.3881V15.2619H18.9579V16.0637H21.034V17.3305H18.9579V18.2286Z" fill="#84C857"/>
</svg>
