<svg width="18" height="18" viewBox="0 0 18 18" fill="none" xmlns="http://www.w3.org/2000/svg">
<path d="M8.04282 4.00021H10.4285C10.8074 4.00021 11.1708 4.15072 11.4387 4.41863C11.7066 4.68654 11.8571 5.0499 11.8571 5.42878V7.8145L12.5714 8.52878L16.8571 5.42878V12.5716M1.14282 1.14307L16.8571 16.8574M11.8571 11.8574V12.5716C11.8571 12.9505 11.7066 13.3139 11.4387 13.5818C11.1708 13.8497 10.8074 14.0002 10.4285 14.0002H2.57139C2.19251 14.0002 1.82915 13.8497 1.56124 13.5818C1.29333 13.3139 1.14282 12.9505 1.14282 12.5716V5.42878C1.14282 5.0499 1.29333 4.68654 1.56124 4.41863C1.82915 4.15072 2.19251 4.00021 2.57139 4.00021H3.99997L11.8571 11.8574Z" stroke="#333333" stroke-width="1.2" stroke-linecap="round" stroke-linejoin="round"/>
</svg>
