<svg width="23" height="24" viewBox="0 0 23 24" fill="none" xmlns="http://www.w3.org/2000/svg">
<path fill-rule="evenodd" clip-rule="evenodd" d="M8.59167 1.82914C8.73457 1.68624 8.92839 1.60596 9.13048 1.60596C9.33257 1.60596 9.52638 1.68624 9.66928 1.82914C9.81218 1.97204 9.89246 2.16585 9.89246 2.36794V6.1479C9.89246 6.56212 10.2282 6.8979 10.6425 6.8979H12.9104C13.1125 6.8979 13.3063 6.97818 13.4492 7.12108C13.5775 7.24936 13.6553 7.41866 13.6699 7.59814L12.9336 11.2798C12.8488 11.6338 12.6999 11.8928 12.5484 12.0442C12.4018 12.1908 12.2857 12.2103 12.218 12.2045C12.1969 12.2027 12.1757 12.2018 12.1544 12.2018H6.8625C6.45991 12.2018 6.07381 12.0419 5.78913 11.7572C5.50445 11.4725 5.34453 11.0864 5.34453 10.6839V6.82264C6.06601 6.67633 6.73482 6.32084 7.26312 5.79253C7.97088 5.08478 8.36849 4.12485 8.36849 3.12393V2.36794C8.36849 2.16585 8.44877 1.97204 8.59167 1.82914ZM4.90343 13.2607C4.95554 13.2086 5.00345 13.1531 5.04691 13.0946C5.56713 13.4864 6.20371 13.7018 6.8625 13.7018H12.1269C12.6994 13.7389 13.2185 13.4955 13.6091 13.1049C14.0014 12.7126 14.2635 12.1789 14.3966 11.611C14.3985 11.603 14.4003 11.595 14.4019 11.5869L15.1579 7.80697C15.1675 7.75854 15.1724 7.70927 15.1724 7.65989C15.1724 7.05997 14.9341 6.48463 14.5099 6.06042C14.0857 5.63622 13.5104 5.3979 12.9104 5.3979H11.3925V2.36794C11.3925 1.76803 11.1541 1.19268 10.7299 0.768477C10.3057 0.344272 9.73039 0.105957 9.13048 0.105957C8.53056 0.105957 7.95522 0.344272 7.53101 0.768477C7.10681 1.19268 6.86849 1.76803 6.86849 2.36794V3.12393C6.86849 3.72703 6.62892 4.30542 6.20246 4.73187C5.77601 5.15832 5.19762 5.3979 4.59453 5.3979H2.32655C1.92713 5.3979 1.54408 5.55657 1.26165 5.839C0.979223 6.12142 0.820557 6.50448 0.820557 6.90389V12.1958C0.820557 12.5953 0.979223 12.9783 1.26165 13.2607C1.54408 13.5432 1.92714 13.7018 2.32655 13.7018H3.83853C4.23795 13.7018 4.621 13.5432 4.90343 13.2607Z" fill="white"/>
<path fill-rule="evenodd" clip-rule="evenodd" d="M14.6544 22.2705C14.5115 22.4134 14.3177 22.4937 14.1156 22.4937C13.9135 22.4937 13.7197 22.4134 13.5768 22.2705C13.4339 22.1276 13.3536 21.9338 13.3536 21.7317V17.9517C13.3536 17.5375 13.0178 17.2017 12.6036 17.2017H10.3357C10.1336 17.2017 9.93975 17.1214 9.79685 16.9785C9.66858 16.8503 9.59076 16.681 9.57618 16.5015L10.3125 12.8198C10.3973 12.4658 10.5462 12.2068 10.6977 12.0554C10.8443 11.9088 10.9604 11.8893 11.0281 11.8951C11.0492 11.8969 11.0704 11.8978 11.0916 11.8978H16.3836C16.7862 11.8978 17.1723 12.0577 17.457 12.3424C17.7416 12.6271 17.9016 13.0132 17.9016 13.4158V17.277C17.1801 17.4233 16.5113 17.7788 15.983 18.3071C15.2752 19.0148 14.8776 19.9748 14.8776 20.9757V21.7317C14.8776 21.9338 14.7973 22.1276 14.6544 22.2705ZM18.3427 10.8389C18.2905 10.891 18.2426 10.9465 18.1992 11.005C17.679 10.6132 17.0424 10.3978 16.3836 10.3978H11.1192C10.5467 10.3607 10.0276 10.6041 9.637 10.9947C9.24466 11.3871 8.98258 11.9207 8.84946 12.4886C8.84758 12.4966 8.84584 12.5046 8.84423 12.5127L8.08824 16.2926C8.07855 16.3411 8.07367 16.3903 8.07367 16.4397C8.07367 17.0396 8.31199 17.615 8.73619 18.0392C9.1604 18.4634 9.73574 18.7017 10.3357 18.7017H11.8536V21.7317C11.8536 22.3316 12.0919 22.9069 12.5162 23.3311C12.9404 23.7553 13.5157 23.9937 14.1156 23.9937C14.7155 23.9937 15.2909 23.7553 15.7151 23.3311C16.1393 22.9069 16.3776 22.3316 16.3776 21.7317V20.9757C16.3776 20.3726 16.6172 19.7942 17.0436 19.3677C17.4701 18.9413 18.0485 18.7017 18.6516 18.7017H20.9195C21.319 18.7017 21.702 18.543 21.9844 18.2606C22.2669 17.9782 22.4255 17.5951 22.4255 17.1957V11.9038C22.4255 11.5044 22.2669 11.1213 21.9844 10.8389C21.702 10.5564 21.319 10.3978 20.9195 10.3978H19.4076C19.0081 10.3978 18.6251 10.5564 18.3427 10.8389Z" fill="white"/>
</svg>
