<svg width="20" height="20" viewBox="0 0 20 20" fill="none" xmlns="http://www.w3.org/2000/svg">
<path d="M6.11111 9.22228V15.4445C6.11111 15.6508 6.02917 15.8486 5.8833 15.9945C5.73744 16.1403 5.53961 16.2223 5.33333 16.2223H3.77778C3.5715 16.2223 3.37367 16.1403 3.22781 15.9945C3.08194 15.8486 3 15.6508 3 15.4445V10.0001C3 9.79377 3.08194 9.59594 3.22781 9.45008C3.37367 9.30422 3.5715 9.22228 3.77778 9.22228H6.11111C6.93623 9.22228 7.72755 8.8945 8.311 8.31105C8.89444 7.72761 9.22222 6.93628 9.22222 6.11117V5.33339C9.22222 4.92083 9.38611 4.52517 9.67783 4.23344C9.96956 3.94172 10.3652 3.77783 10.7778 3.77783C11.1903 3.77783 11.586 3.94172 11.8777 4.23344C12.1694 4.52517 12.3333 4.92083 12.3333 5.33339V9.22228H14.6667C15.0792 9.22228 15.4749 9.38616 15.7666 9.67789C16.0583 9.96961 16.2222 10.3653 16.2222 10.7778L15.4444 14.6667C15.3326 15.1439 15.1204 15.5536 14.8398 15.8341C14.5593 16.1147 14.2255 16.2509 13.8889 16.2223H8.44444C7.82561 16.2223 7.23211 15.9764 6.79453 15.5389C6.35694 15.1013 6.11111 14.5078 6.11111 13.8889" fill="white"/>
<path d="M6.11111 9.22228V15.4445C6.11111 15.6508 6.02917 15.8486 5.8833 15.9945C5.73744 16.1403 5.53961 16.2223 5.33333 16.2223H3.77778C3.5715 16.2223 3.37367 16.1403 3.22781 15.9945C3.08194 15.8486 3 15.6508 3 15.4445V10.0001C3 9.79377 3.08194 9.59594 3.22781 9.45008C3.37367 9.30422 3.5715 9.22228 3.77778 9.22228H6.11111ZM6.11111 9.22228C6.93623 9.22228 7.72755 8.8945 8.311 8.31105C8.89444 7.72761 9.22222 6.93628 9.22222 6.11117V5.33339C9.22222 4.92083 9.38611 4.52517 9.67783 4.23344C9.96956 3.94172 10.3652 3.77783 10.7778 3.77783C11.1903 3.77783 11.586 3.94172 11.8777 4.23344C12.1694 4.52517 12.3333 4.92083 12.3333 5.33339V9.22228H14.6667C15.0792 9.22228 15.4749 9.38616 15.7666 9.67789C16.0583 9.96961 16.2222 10.3653 16.2222 10.7778L15.4444 14.6667C15.3326 15.1439 15.1204 15.5536 14.8398 15.8341C14.5593 16.1147 14.2255 16.2509 13.8889 16.2223H8.44444C7.82561 16.2223 7.23211 15.9764 6.79453 15.5389C6.35694 15.1013 6.11111 14.5078 6.11111 13.8889" stroke="#333333" stroke-width="1.5" stroke-linecap="round" stroke-linejoin="round"/>
<rect x="3.5" y="9.72217" width="2.11111" height="6" fill="#333333" stroke="#333333"/>
</svg>
