<svg width="22" height="20" viewBox="0 0 22 20" fill="none" xmlns="http://www.w3.org/2000/svg">
<mask id="mask0" mask-type="alpha" maskUnits="userSpaceOnUse" x="3" y="0" width="15" height="12">
<rect x="3.70251" y="0.890625" width="13.5515" height="9.72146" fill="#C4C4C4" stroke="white"/>
</mask>
<g mask="url(#mask0)">
<rect width="12.6152" height="8.30729" rx="2" transform="matrix(0.934548 -0.355837 0.29083 0.956775 3.34607 4.94482)" stroke="white" stroke-width="1.2" stroke-linecap="square" stroke-linejoin="round"/>
<path d="M7.82919 7.43746L10.4493 8.75846L12.9248 3.74038" stroke="white" stroke-width="1.2" stroke-linecap="round"/>
</g>
<line x1="0.802515" y1="10.5118" x2="20.5005" y2="10.5118" stroke="white" stroke-width="1.2" stroke-linecap="round"/>
<path fill-rule="evenodd" clip-rule="evenodd" d="M6.42299 18.7694C6.17077 18.4995 5.97503 18.1908 5.83559 17.8433C5.69598 17.4959 5.62632 17.1377 5.62643 16.7689C5.62643 16.3948 5.69887 16.034 5.84368 15.6864C5.98849 15.3391 6.191 15.033 6.45125 14.7684C6.71134 14.5038 7.01981 14.2927 7.3766 14.135C7.73334 13.9773 8.12361 13.8984 8.54746 13.8984C8.98196 13.8984 9.37627 13.9813 9.73035 14.147C10.0844 14.3128 10.3874 14.5318 10.6396 14.8045C10.8917 15.0771 11.0862 15.3871 11.223 15.7345C11.3598 16.0821 11.4281 16.4375 11.4281 16.8009C11.4281 17.1752 11.3558 17.5345 11.2109 17.8793C11.066 18.2241 10.8649 18.5288 10.6074 18.7934C10.3499 19.058 10.0428 19.2705 9.68602 19.4308C9.32922 19.5912 8.93895 19.6714 8.51521 19.6714C8.08066 19.6714 7.6864 19.5886 7.33227 19.4228C6.97824 19.2572 6.67509 19.0394 6.42299 18.7694ZM7.53344 15.7546C7.42609 15.8963 7.34695 16.0567 7.29602 16.2357C7.24503 16.4148 7.21965 16.5979 7.2196 16.785C7.2196 16.9774 7.24636 17.1632 7.30007 17.3422C7.35355 17.5213 7.43402 17.6803 7.54142 17.8193C7.64871 17.9583 7.78411 18.0706 7.94782 18.156C8.11136 18.2416 8.30583 18.2843 8.53117 18.2843C8.75651 18.2843 8.95225 18.2402 9.11862 18.152C9.28483 18.0638 9.42039 17.9489 9.52502 17.8072C9.6296 17.6656 9.7073 17.5039 9.75834 17.3221C9.80927 17.1404 9.83482 16.956 9.83482 16.7688C9.83482 16.5764 9.80794 16.3907 9.75435 16.2116C9.70065 16.0326 9.61879 15.8749 9.50889 15.7386C9.39888 15.6022 9.26211 15.4927 9.09851 15.4098C8.93485 15.327 8.7431 15.2855 8.52319 15.2855C8.29785 15.2855 8.10333 15.3284 7.93978 15.4138C7.77607 15.4994 7.64068 15.6131 7.53344 15.7546ZM5.73073 13.9294L3.63053 19.6222H2.32694L0.202515 13.9294H1.86019L2.97873 17.6578L4.08115 13.9294H5.73073ZM13.2467 19.6229H14.8158V15.2932H16.4574V13.9301H11.5971V15.2932H13.2467V19.6229ZM18.5979 18.2599H21.1005V19.6229H17.0288V13.9301H21.0281V15.2932H18.5979V16.095H20.674V17.3618H18.5979V18.2599Z" fill="white"/>
</svg>
