<svg width="17" height="16" viewBox="0 0 17 16" fill="none" xmlns="http://www.w3.org/2000/svg">
<path fill-rule="evenodd" clip-rule="evenodd" d="M8.5 16C12.9183 16 16.5 12.4183 16.5 8C16.5 3.58172 12.9183 0 8.5 0C4.08172 0 0.5 3.58172 0.5 8C0.5 12.4183 4.08172 16 8.5 16ZM7.66602 5.77344L7.85352 8.58008C7.88867 8.94336 7.94727 9.21484 8.0293 9.39453C8.11133 9.57031 8.25781 9.6582 8.46875 9.6582C8.67578 9.6582 8.82422 9.56641 8.91406 9.38281C9.00391 9.19922 9.0625 8.93555 9.08984 8.5918L9.3418 5.70312C9.36914 5.4375 9.38281 5.17578 9.38281 4.91797C9.38281 4.48047 9.32617 4.14648 9.21289 3.91602C9.09961 3.68164 8.875 3.56445 8.53906 3.56445C8.26172 3.56445 8.03711 3.65625 7.86523 3.83984C7.69727 4.01953 7.61328 4.27148 7.61328 4.5957C7.61328 4.83398 7.63086 5.22656 7.66602 5.77344ZM7.87695 12.207C8.05664 12.3594 8.26562 12.4355 8.50391 12.4355C8.73828 12.4355 8.94336 12.3574 9.11914 12.2012C9.29492 12.0449 9.38281 11.8301 9.38281 11.5566C9.38281 11.3145 9.29492 11.1094 9.11914 10.9414C8.94727 10.7695 8.73828 10.6836 8.49219 10.6836C8.24609 10.6836 8.03711 10.7695 7.86523 10.9414C7.69727 11.1094 7.61328 11.3145 7.61328 11.5566C7.61328 11.834 7.70117 12.0508 7.87695 12.207Z" fill="white"/>
</svg>
