<svg width="25" height="24" viewBox="0 0 25 24" fill="none" xmlns="http://www.w3.org/2000/svg">
<!--<g clip-path="url(#clip0)">-->
<path d="M12.0559 23.3682C18.3346 23.3682 23.4244 18.2784 23.4244 11.9998C23.4244 5.72117 18.3346 0.631348 12.0559 0.631348C5.77733 0.631348 0.6875 5.72117 0.6875 11.9998C0.6875 18.2784 5.77733 23.3682 12.0559 23.3682Z" fill="#FFC10E"/>
<path d="M18.6391 8.93016C17.8331 7.22302 15.8887 6.44179 14.1267 7.12678C13.5934 7.33427 13.8252 8.20242 14.3653 7.99239C15.7816 7.44164 17.2136 8.00568 17.864 9.38304C18.111 9.90635 18.8847 9.45054 18.6391 8.93016Z" fill="black"/>
<path d="M6.55215 9.37872C7.20249 8.00132 8.63445 7.43713 10.0508 7.98808C10.591 8.19811 10.8227 7.33 10.2894 7.12246C8.52752 6.43729 6.58323 7.2187 5.77701 8.92584C5.53148 9.44608 6.30517 9.90184 6.55215 9.37872Z" fill="black"/>
<path d="M14.272 14.4394C14.272 16.3575 13.2797 17.912 12.0555 17.912C10.8316 17.912 9.83887 16.3575 9.83887 14.4394C9.83887 12.5222 10.8316 10.9668 12.0555 10.9668C13.2797 10.9668 14.272 12.5222 14.272 14.4394Z" fill="black"/>
<!--</g>-->
<defs>
<clipPath id="clip0">
<rect width="22.7368" height="22.7368" fill="white" transform="translate(0.6875 0.631348)"/>
</clipPath>
</defs>
</svg>
